<?xml version="1.0" encoding="utf-8"?>
<svg viewBox="631.163 -1267.402 3170 2317.644" xmlns="http://www.w3.org/2000/svg">
  <g>
    <path d="M 2889.743 509.692 C 2893.083 580.132 2836.853 639.042 2766.343 639.042 L 2766.343 770.712 L 2502.203 764.042 L 2367.343 760.562 L 1826.583 746.852 L 1868.083 513.472 L 1970.013 513.472 L 2105.093 226.772 C 2127.873 176.282 2168.933 136.162 2219.933 114.542 L 2397.603 39.162 C 2407.393 52.292 2420.743 62.742 2436.123 69.192 C 2438.803 70.352 2441.563 71.372 2444.393 72.242 C 2448.603 73.552 2452.953 74.562 2457.453 75.292 L 2457.523 75.292 C 2460.493 75.802 2463.473 76.092 2466.523 76.312 C 2468.553 76.452 2470.513 76.532 2472.543 76.532 C 2473.633 76.682 2474.723 76.682 2475.803 76.682 C 2482.113 76.902 2488.503 76.902 2494.813 76.682 C 2497.863 76.612 2500.833 76.532 2503.883 76.322 C 2506.933 76.102 2509.973 75.812 2512.953 75.302 C 2517.453 74.572 2521.803 73.562 2526.013 72.252 C 2528.843 71.382 2531.603 70.362 2534.283 69.202 C 2559.533 58.682 2579.043 37.422 2587.173 11.242 L 2794.653 129.642 C 2843.913 157.792 2875.393 209.082 2878.083 265.742 L 2889.743 509.692 Z" style="fill: rgb(64, 112, 244);"/>
    <g opacity="0.55" transform="matrix(1, 0, 0, 1, 631.163147, -1267.75769)">
      <g opacity="0.55">
        <g opacity="0.55">
          <g opacity="0.55">
            <g opacity="0.55">
              <g opacity="0.55">
                <path opacity="0.55" d="M1813.22 1340L1618.72 1418.13C1567.72 1439.75 1526.66 1479.87 1503.88 1530.36L1380.47 1792.28C1373.34 1807.41 1358.12 1817.06 1341.4 1817.06H1230.52L1236.9 1781.22H1338.83L1473.91 1494.52C1496.69 1444.03 1537.75 1403.91 1588.75 1382.29L1766.42 1306.91C1776.21 1320.04 1789.56 1330.49 1804.94 1336.94C1807.63 1338.11 1810.39 1339.12 1813.22 1340Z" fill="white"/>
              </g>
            </g>
          </g>
        </g>
      </g>
    </g>
    <path d="M 2591.433 -97.668 L 2591.433 -16.488 C 2591.433 -6.838 2589.983 2.452 2587.153 11.222 C 2579.023 37.412 2559.513 58.672 2534.263 69.182 C 2531.583 70.342 2528.823 71.362 2525.993 72.232 C 2521.783 73.542 2517.433 74.552 2512.933 75.282 C 2509.963 75.792 2506.913 76.082 2503.863 76.302 C 2500.813 76.522 2497.843 76.592 2494.793 76.662 C 2488.483 76.882 2482.093 76.882 2475.783 76.662 C 2474.693 76.662 2473.603 76.592 2472.523 76.512 C 2470.493 76.512 2468.533 76.442 2466.503 76.292 C 2463.453 76.072 2460.483 75.782 2457.503 75.272 C 2457.433 75.202 2457.433 75.272 2457.433 75.272 C 2452.933 74.542 2448.583 73.532 2444.373 72.222 C 2441.613 71.352 2438.863 70.332 2436.103 69.172 C 2420.723 62.712 2407.373 52.272 2397.583 39.142 C 2385.903 23.612 2379.013 4.392 2379.013 -16.428 C 2424.643 -10.258 2470.273 -19.328 2515.913 -43.558 C 2518.013 -44.648 2520.053 -45.808 2522.153 -47.038 C 2524.113 -48.128 2525.993 -49.218 2527.953 -50.378 C 2530.713 -51.978 2533.393 -53.568 2536.083 -55.308 C 2538.183 -56.688 2540.293 -58.068 2542.393 -59.448 C 2558.793 -70.248 2575.113 -82.938 2591.433 -97.668 Z" style="fill: rgb(208, 179, 138);"/>
    <g opacity="0.3" transform="matrix(1, 0, 0, 1, 631.163147, -1267.75769)">
      <g opacity="0.3">
        <g opacity="0.3">
          <g opacity="0.3">
            <g opacity="0.3">
              <g opacity="0.3">
                <path opacity="0.3" d="M1960.27 1170.09V1251.27C1960.27 1260.92 1958.82 1270.21 1955.99 1278.98C1947.86 1305.17 1928.35 1326.43 1903.1 1336.94C1900.42 1338.1 1897.66 1339.12 1894.83 1339.99C1890.62 1341.3 1886.27 1342.31 1881.77 1343.04C1878.8 1343.55 1875.75 1343.84 1872.7 1344.06C1869.65 1344.28 1866.68 1344.35 1863.63 1344.42C1857.32 1344.64 1850.93 1344.64 1844.62 1344.42C1843.53 1344.42 1842.44 1344.35 1841.36 1344.27C1867.55 1327.8 1884.74 1298.78 1884.74 1265.85V1224.21C1886.84 1223.12 1888.88 1221.96 1890.98 1220.73C1892.94 1219.71 1894.82 1218.55 1896.78 1217.39C1899.54 1215.79 1902.22 1214.2 1904.91 1212.46C1907.01 1211.15 1909.12 1209.78 1911.22 1208.32C1927.63 1197.51 1943.95 1184.82 1960.27 1170.09Z" fill="#1E2128"/>
              </g>
            </g>
          </g>
        </g>
      </g>
    </g>
    <path d="M 1998.243 -320.388 C 1894.903 -318.258 1853.443 -512.278 1994.483 -496.168 L 1994.483 -350.798 C 1995.383 -340.418 1996.613 -330.278 1998.243 -320.388 Z" style="fill: rgb(208, 179, 138);"/>
    <g opacity="0.55" transform="matrix(1, 0, 0, 1, 631.163147, -1267.75769)">
      <g opacity="0.55">
        <g opacity="0.55">
          <g opacity="0.55">
            <g opacity="0.55">
              <g opacity="0.55">
                <path opacity="0.55" d="M1367.08 947.37C1263.74 949.5 1222.28 755.48 1363.32 771.59V772.9C1284.01 790.23 1302.33 904.12 1365.77 937.89C1366.1 941.08 1366.59 944.26 1367.08 947.37Z" fill="white"/>
              </g>
            </g>
          </g>
        </g>
      </g>
    </g>
    <path d="M 1996.603 -302.868 C 1958.523 -302.868 1923.633 -325.278 1902.973 -363.158 C 1881.443 -402.628 1880.793 -447.818 1901.313 -478.298 C 1912.083 -494.298 1938.763 -520.148 1996.473 -513.558 C 2005.313 -512.548 2011.993 -505.068 2011.993 -496.168 L 2011.993 -351.568 C 2012.873 -341.628 2014.053 -332.098 2015.523 -323.238 C 2016.353 -318.228 2014.963 -313.108 2011.713 -309.198 C 2008.473 -305.298 2003.693 -302.988 1998.613 -302.888 C 1997.933 -302.878 1997.273 -302.868 1996.603 -302.868 Z M 1976.983 -479.588 C 1959.623 -479.318 1941.043 -474.648 1930.343 -458.748 C 1917.443 -439.598 1918.823 -407.178 1933.703 -379.918 C 1944.433 -360.258 1960.163 -346.568 1977.863 -340.858 C 1977.573 -343.638 1977.303 -346.458 1977.053 -349.298 C 1977.013 -349.798 1976.983 -350.308 1976.983 -350.808 L 1976.983 -479.588 Z" fill="#1E2128"/>
    <path d="M 2710.523 -296.018 C 2714.693 -313.428 2717.883 -331.748 2720.093 -350.798 L 2720.093 -476.868 C 2747.813 -494.768 2772.253 -499.838 2792.283 -496.158 C 2880.503 -480.148 2884.833 -296.018 2710.523 -296.018 Z" style="fill: rgb(208, 179, 138);"/>
    <path d="M 2710.523 -293.528 L 2707.353 -293.528 L 2708.093 -296.608 C 2712.213 -313.798 2715.403 -332.128 2717.603 -351.088 L 2717.593 -478.238 L 2718.733 -478.978 C 2744.953 -495.918 2770.543 -502.708 2792.733 -498.628 C 2832.033 -491.488 2858.403 -449.868 2854.073 -401.798 C 2849.583 -351.848 2809.283 -293.528 2710.523 -293.528 Z M 2722.593 -475.508 L 2722.593 -350.808 C 2720.493 -332.508 2717.503 -315.028 2713.683 -298.548 C 2806.773 -299.768 2844.833 -354.938 2849.103 -402.258 C 2853.193 -447.728 2828.583 -487.048 2791.843 -493.718 C 2771.223 -497.488 2747.313 -491.198 2722.593 -475.508 Z" fill="#1E2128"/>
    <path d="M 2710.523 -278.528 C 2705.163 -278.528 2700.103 -280.978 2696.783 -285.188 C 2693.463 -289.398 2692.253 -294.888 2693.503 -300.098 C 2697.403 -316.408 2700.463 -333.798 2702.583 -351.818 L 2702.583 -476.868 C 2702.583 -482.808 2705.593 -488.338 2710.583 -491.568 C 2740.063 -510.618 2769.393 -518.168 2795.433 -513.378 C 2842.393 -504.848 2874.033 -456.298 2869.003 -400.458 C 2863.953 -344.208 2819.403 -278.528 2710.523 -278.528 Z M 2737.593 -467.008 L 2737.593 -350.808 C 2737.593 -350.138 2737.553 -349.458 2737.473 -348.798 C 2736.123 -337.158 2734.413 -325.728 2732.353 -314.628 C 2801.683 -321.898 2830.593 -363.988 2834.163 -403.598 C 2837.053 -435.638 2822.263 -472.938 2789.163 -478.948 C 2774.123 -481.708 2756.453 -477.588 2737.593 -467.008 Z" fill="#1E2128"/>
    <path d="M 2720.063 -545.318 L 2720.063 -367.648 C 2720.063 -353.868 2718.753 -340.078 2716.003 -326.518 C 2703.673 -265.148 2682.923 -213.128 2654.413 -169.748 C 2636.133 -141.748 2614.513 -117.368 2589.843 -96.328 C 2458.173 15.902 2263.673 7.342 2133.093 -106.268 C 2079.123 -153.278 2037.983 -215.228 2010.203 -295.758 C 2009.333 -298.228 2008.533 -300.688 2007.813 -303.228 L 2007.743 -303.298 C 1998.893 -331.668 1994.463 -361.258 1994.463 -391.008 L 1994.463 -792.188 L 2698.093 -782.398 L 2720.063 -545.318 Z" style="fill: rgb(208, 179, 138);"/>
    <path d="M 2654.403 -169.748 C 2636.123 -141.748 2614.503 -117.368 2589.833 -96.328 C 2458.163 15.902 2263.663 7.342 2133.083 -106.268 C 2079.113 -153.278 2037.973 -215.228 2010.193 -295.758 C 2009.323 -298.228 2008.523 -300.688 2007.803 -303.228 C 2117.853 -218.928 2375.323 -212.548 2587.163 -289.948 C 2580.843 -218.788 2603.333 -178.738 2654.403 -169.748 Z" style="fill: rgb(64, 112, 244);"/>
    <g opacity="0.55" transform="matrix(1, 0, 0, 1, 631.163147, -1267.75769)">
      <g opacity="0.55">
        <g opacity="0.55">
          <g opacity="0.55">
            <g opacity="0.55">
              <g opacity="0.55">
                <path opacity="0.55" d="M1545.67 1169.11C1591.37 1208.94 1644.99 1235.85 1700.99 1249.13C1629.46 1241.22 1559.52 1211.55 1501.92 1161.49C1447.95 1114.48 1406.81 1052.53 1379.03 972C1368.51 941.39 1363.29 909.17 1363.29 876.75V475.57L2066.92 485.36L2067.57 492.47L1407.03 483.26V884.44C1407.03 916.8 1412.25 949.08 1422.77 979.69C1450.56 1060.22 1491.62 1122.1 1545.67 1169.11Z" fill="white"/>
              </g>
            </g>
          </g>
        </g>
      </g>
    </g>
    <g opacity="0.3" transform="matrix(1, 0, 0, 1, 631.163147, -1267.75769)">
      <g opacity="0.3">
        <g opacity="0.3">
          <g opacity="0.3">
            <g opacity="0.3">
              <g opacity="0.3">
                <path opacity="0.3" d="M2088.9 722.44V900.11C2088.9 913.89 2087.59 927.68 2084.84 941.24C2064.53 1042.3 2021.51 1117.89 1958.68 1171.43C1827.01 1283.66 1632.51 1275.1 1501.93 1161.49C1488.07 1149.38 1475.02 1136.39 1462.9 1122.24C1590.29 1202.91 1757.44 1198.85 1874.75 1098.81C1937.58 1045.27 1980.6 969.68 2000.91 868.62C2003.67 855.13 2004.97 841.27 2004.97 827.49V649.9L1989.59 484.28L2066.92 485.37L2088.9 722.44Z" fill="#1E2128"/>
              </g>
            </g>
          </g>
        </g>
      </g>
    </g>
    <path d="M 2370.983 1.032 C 2367.513 1.032 2364.043 0.982 2360.563 0.882 C 2273.253 -1.598 2188.393 -34.978 2121.623 -93.088 C 2063.903 -143.328 2022.053 -207.748 1993.683 -290.028 C 1982.603 -322.168 1976.983 -356.138 1976.983 -390.998 L 1976.983 -624.278 C 1976.983 -633.948 1984.813 -641.778 1994.483 -641.778 C 2004.153 -641.778 2011.983 -633.948 2011.983 -624.278 L 2011.983 -390.998 C 2011.983 -360.028 2016.963 -329.898 2026.773 -301.438 C 2053.083 -225.118 2091.623 -165.608 2144.593 -119.498 C 2270.253 -10.128 2456.803 -5.908 2578.513 -109.678 C 2639.423 -161.608 2679.913 -235.728 2698.843 -329.978 C 2701.323 -342.328 2702.583 -355.008 2702.583 -367.678 L 2702.583 -545.308 C 2702.583 -554.978 2710.423 -562.808 2720.083 -562.808 C 2729.743 -562.808 2737.583 -554.978 2737.583 -545.308 L 2737.583 -367.678 C 2737.583 -352.698 2736.093 -337.688 2733.163 -323.078 C 2712.643 -220.948 2668.253 -140.188 2601.223 -83.038 C 2537.393 -28.618 2455.993 1.032 2370.983 1.032 Z" fill="#1E2128"/>
    <g opacity="0.3" transform="matrix(1, 0, 0, 1, 631.163147, -1267.75769)">
      <g opacity="0.3">
        <g opacity="0.3">
          <g opacity="0.3">
            <g opacity="0.3">
              <g opacity="0.3">
                <path opacity="0.3" d="M2220.87 822.93C2197.03 893.79 2153.05 917.41 2088.93 893.79L2085.52 967.37L2160.47 948.97C2160.47 948.98 2232.22 897.2 2220.87 822.93Z" fill="#1E2128"/>
              </g>
            </g>
          </g>
        </g>
      </g>
    </g>
    <g opacity="0.55" transform="matrix(1, 0, 0, 1, 631.163147, -1267.75769)">
      <g opacity="0.55">
        <g opacity="0.55">
          <g opacity="0.55">
            <g opacity="0.55">
              <g opacity="0.55">
                <g opacity="0.55">
                  <path opacity="0.55" d="M1310.74 475.59C1395.09 580.7 1530.95 615.89 1709.44 604.91C1709.44 604.91 1559.2 666 1450.53 620.3C1341.86 574.59 1319.93 520.56 1310.74 475.59Z" fill="white"/>
                </g>
              </g>
            </g>
          </g>
        </g>
      </g>
      <g opacity="0.55">
        <g opacity="0.55">
          <g opacity="0.55">
            <g opacity="0.55">
              <g opacity="0.55">
                <g opacity="0.55">
                  <path opacity="0.55" d="M1544.19 639.62C1512.08 639.62 1479.23 635.08 1449.56 622.6C1342.25 577.46 1317.92 523.21 1308.29 476.09L1306.22 465.96L1312.69 474.02C1391.31 571.99 1521.03 613.99 1709.28 602.41L1724.51 601.47L1710.37 607.22C1709.28 607.67 1629.36 639.62 1544.19 639.62ZM1315.48 485.22C1326.73 530.29 1353.94 576.96 1451.5 617.99C1537.5 654.16 1651.31 622.23 1692.65 608.31C1516.91 616.25 1393.27 575.91 1315.48 485.22Z" fill="#1E2128"/>
                </g>
              </g>
            </g>
          </g>
        </g>
      </g>
    </g>
    <path d="M 2799.981 -491.263 C 2781.378 -493.963 2758.737 -490.185 2733.069 -476.908 C 2677.445 -489.969 2657.897 -560.601 2656.082 -659.296 C 2428.892 -596.214 2170.255 -562.758 2061.165 -634.58 L 2061.165 -535.617 C 1664.352 -772.771 2087.167 -1211.095 2654.804 -933.195 C 2629.071 -1022.444 2761.145 -1042.036 2718.623 -931.417 C 2718.623 -931.417 2719.3 -931.901 2720.568 -932.875 C 2721.439 -933.522 2722.244 -934.117 2723.124 -934.764 C 2723.865 -935.248 2724.735 -935.895 2725.68 -936.542 C 2775.256 -970.318 2817.842 -956.885 2822.149 -934.273 C 2825.779 -916.087 2804.619 -891.966 2742.542 -881.768 C 2920.433 -909.133 2948.851 -618.766 2799.981 -491.263 Z" style="fill: rgb(47, 47, 47);"/>
    <path d="M 1939.293 -802.778 C 1945.163 -781.858 1953.823 -762.038 1964.943 -744.428 C 1976.003 -726.938 1989.993 -711.428 2005.543 -702.438 L 1983.423 -675.308 C 1974.493 -684.548 1967.623 -694.738 1962.073 -705.168 C 1956.533 -715.618 1952.303 -726.378 1949.003 -737.218 C 1942.443 -758.918 1939.403 -781.028 1939.293 -802.778 Z" fill="#1E2128"/>
    <g opacity="0.55" transform="matrix(0.83757, 0, 0, 0.746671, 969.0271, -1091.101196)" style="">
      <g opacity="0.55">
        <g opacity="0.55">
          <g opacity="0.55">
            <g opacity="0.55">
              <g opacity="0.55">
                <path opacity="0.55" d="M2010.83 190.75C1743.27 38.31 1507.99 68.64 1366.85 176.96C1372.65 232.1 1322.45 298.33 1269.93 287.23C1199.85 410.85 1211.82 569.44 1344.65 697.34C948.47 375.67 1400.51 -190.63 2004.39 177.4C1982.7 83.8101 2064.75 47.18 2080.06 106.23C2057.57 107.26 2032.51 133.07 2033.05 177.29C2033.19 188.96 2020.97 196.53 2010.83 190.75Z" fill="white"/>
              </g>
            </g>
          </g>
        </g>
      </g>
    </g>
    <g opacity="0.55" transform="matrix(1, 0, 0, 1, 631.163147, -1267.75769)">
      <g opacity="0.55">
        <g opacity="0.55">
          <g opacity="0.55">
            <g opacity="0.55">
              <g opacity="0.55">
                <path opacity="0.55" d="M2185.09 175.95C2157.23 170.36 2125.24 182.26 2090.56 205.04C2072.42 215.92 2058.06 202.72 2073.29 179.79C2073.29 179.79 2074.02 179.14 2075.39 177.83C2076.12 177.18 2077.06 176.38 2078.15 175.29C2078.95 174.64 2079.89 173.77 2080.91 172.9C2134.46 127.49 2180.45 145.55 2185.09 175.95Z" fill="white"/>
              </g>
            </g>
          </g>
        </g>
      </g>
    </g>
    <path d="M 2732.33 -459.368 C 2730.784 -459.368 2729.239 -459.541 2727.731 -459.893 C 2671.789 -473.008 2643.27 -529.911 2638.616 -638.469 C 2518.546 -606.632 2219.843 -538.964 2069.138 -606.903 L 2069.138 -531.795 C 2069.138 -526.825 2065.645 -522.284 2060.109 -520.055 C 2054.565 -517.824 2047.943 -518.29 2042.97 -521.256 C 1847.89 -637.592 1848.067 -793.624 1934.785 -896.65 C 1995.757 -969.092 2099.839 -1018.511 2220.33 -1032.234 C 2350.252 -1047.03 2492.453 -1021.243 2633.399 -957.57 C 2634.13 -986.134 2650.585 -1005.397 2667.537 -1014.217 C 2685.22 -1023.413 2705.684 -1023.391 2720.922 -1014.15 C 2729.576 -1008.91 2745.657 -994.541 2742.164 -961.495 C 2770.514 -972.989 2795.54 -971.705 2812.108 -964.919 C 2831.158 -957.111 2841.647 -941.376 2838.837 -924.839 C 2836.534 -911.266 2826.24 -899.097 2809.476 -889.263 C 2836.965 -880.255 2860.407 -862.47 2878.193 -836.587 C 2938.64 -748.605 2922.849 -572.798 2811.911 -478.008 C 2808.099 -474.75 2802.489 -473.264 2796.991 -474.074 C 2780.976 -476.431 2761.701 -472.07 2741.237 -461.477 C 2738.549 -460.089 2735.449 -459.368 2732.33 -459.368 Z M 2654.453 -669.774 C 2657.778 -669.774 2661.075 -668.963 2663.866 -667.394 C 2668.165 -664.977 2670.768 -661.043 2670.844 -656.832 C 2672.66 -558.137 2692.741 -501.084 2730.55 -487.039 C 2752.251 -497.121 2773.764 -501.813 2793.479 -500.836 C 2836.44 -540.075 2866.673 -598.262 2876.844 -661.704 C 2886.8 -723.816 2876.563 -784.458 2849.458 -823.915 C 2824.565 -860.151 2789.433 -875.075 2744.983 -868.251 C 2736.169 -866.9 2727.582 -871.517 2725.821 -878.595 C 2724.069 -885.683 2729.783 -892.574 2738.605 -894.022 C 2785.612 -901.748 2804.465 -917.362 2806.33 -928.382 C 2807.275 -933.96 2803.931 -938.757 2797.16 -941.526 C 2784.479 -946.721 2759.032 -944.65 2728.986 -921.723 C 2723.583 -917.602 2715.377 -916.927 2709.056 -920.072 C 2702.715 -923.225 2699.831 -929.403 2702.032 -935.115 C 2716.22 -971.93 2708.138 -988.949 2701.133 -993.197 C 2695.363 -996.696 2688.188 -993.648 2685.36 -992.177 C 2671.311 -984.865 2660.831 -964.671 2669.11 -936.017 C 2670.6 -930.867 2668.09 -925.499 2662.742 -922.399 C 2657.385 -919.298 2650.248 -919.081 2644.61 -921.828 C 2501.051 -991.958 2355.918 -1021.139 2224.919 -1006.222 C 2113.588 -993.543 2017.729 -948.246 1961.937 -881.959 C 1887.966 -794.075 1884.884 -662.777 2036.339 -559.053 L 2036.339 -631.653 C 2036.339 -636.736 2039.991 -641.353 2045.714 -643.53 C 2051.446 -645.699 2058.217 -645.031 2063.116 -641.818 C 2169.839 -571.702 2435.781 -609.913 2649.077 -669.053 C 2650.838 -669.534 2652.655 -669.774 2654.453 -669.774 Z" fill="#1E2128" style=""/>
    <g opacity="0.3" transform="matrix(1, 0, 0, 1, 631.163147, -1267.75769)">
      <g opacity="0.3">
        <g opacity="0.3">
          <g opacity="0.3">
            <g opacity="0.3">
              <g opacity="0.3">
                <path opacity="0.3" d="M2161.12 771.59C2141.09 767.91 2116.64 772.98 2088.93 790.88C2028.84 773.3 2007.74 678.3 2005.78 545.6C1760.42 630.47 1481.13 675.43 1363.32 578.88V711.9C1299.14 664.15 1256.38 610.11 1231.85 554.02V553.94C1278.94 594 1304.01 573.66 1311.21 482.34C1370.16 724.55 1812.99 643.06 1963.51 432.09C1984.46 402.73 2035.38 426.93 2051.5 459.19C2143.88 644.08 2319.88 443.7 2175.84 257.41C2175.92 257.41 2176 257.49 2176.17 257.49C2177.4 258.39 2181.32 260.84 2187.45 264.77C2296.03 343.99 2292.84 631.21 2161.12 771.59Z" fill="#1E2128"/>
              </g>
            </g>
          </g>
        </g>
      </g>
    </g>
    <path d="M 2183.673 -557.258 C 2170.723 -559.108 2158.783 -561.168 2147.313 -562.628 C 2135.843 -564.108 2124.873 -564.838 2114.203 -564.668 C 2103.473 -564.668 2093.203 -562.978 2082.633 -560.218 C 2071.733 -557.898 2061.573 -552.718 2048.953 -548.048 L 2048.683 -547.948 C 2047.313 -547.438 2045.793 -548.138 2045.283 -549.508 C 2045.033 -550.188 2045.083 -550.908 2045.353 -551.518 C 2050.953 -563.818 2060.033 -575.338 2072.453 -582.568 C 2084.553 -590.118 2099.143 -594.568 2113.463 -594.638 C 2127.803 -594.988 2141.833 -591.898 2154.323 -586.288 C 2166.773 -580.528 2178.073 -572.718 2186.413 -561.428 C 2187.283 -560.248 2187.033 -558.588 2185.853 -557.718 C 2185.273 -557.288 2184.573 -557.128 2183.903 -557.228 L 2183.673 -557.258 Z" fill="#1E2128"/>
    <path d="M 2377.993 -568.298 C 2385.473 -579.648 2396.113 -587.668 2408.123 -593.488 C 2420.163 -599.138 2433.953 -602.368 2448.063 -601.488 C 2455.083 -601.038 2462.133 -599.768 2468.833 -597.448 C 2475.503 -595.058 2481.823 -591.788 2487.453 -587.728 C 2498.603 -579.428 2507.033 -568.408 2511.123 -555.798 C 2511.583 -554.378 2510.803 -552.848 2509.373 -552.388 C 2508.693 -552.168 2507.983 -552.228 2507.383 -552.518 L 2507.323 -552.548 C 2495.723 -558.048 2485.673 -562.878 2475.773 -566.128 C 2465.873 -569.318 2456.353 -571.088 2446.453 -571.558 C 2436.573 -572.118 2426.303 -571.358 2415.483 -569.938 C 2404.643 -568.518 2393.303 -566.318 2380.903 -564.258 L 2380.643 -564.218 C 2379.193 -563.978 2377.813 -564.958 2377.573 -566.408 C 2377.473 -567.088 2377.643 -567.758 2377.993 -568.298 Z" fill="#1E2128"/>
    <path d="M 2654.473 -157.258 C 2653.763 -157.258 2653.033 -157.318 2652.313 -157.448 C 2614.893 -163.988 2572.353 -189.498 2573.703 -271.938 C 2402.603 -213.928 2197.593 -207.168 2068.863 -256.258 C 2062.413 -258.718 2059.173 -265.948 2061.643 -272.398 C 2064.103 -278.848 2071.333 -282.088 2077.783 -279.618 C 2205.863 -230.768 2413.573 -239.838 2582.903 -301.678 C 2586.903 -303.148 2591.403 -302.458 2594.793 -299.858 C 2598.183 -297.258 2600.013 -293.098 2599.633 -288.838 C 2592.063 -203.388 2628.523 -186.988 2656.603 -182.078 C 2663.403 -180.888 2667.953 -174.418 2666.773 -167.608 C 2665.713 -161.538 2660.433 -157.258 2654.473 -157.258 Z" fill="#1E2128"/>
    <path d="M 2587.173 -277.428 C 2584.673 -277.428 2582.143 -278.178 2579.943 -279.738 C 2574.313 -283.738 2572.993 -291.538 2577.003 -297.168 L 2709.913 -484.108 C 2713.913 -489.738 2721.713 -491.058 2727.343 -487.048 C 2732.973 -483.048 2734.293 -475.248 2730.283 -469.618 L 2597.373 -282.678 C 2594.933 -279.258 2591.083 -277.428 2587.173 -277.428 Z" fill="#1E2128"/>
    <path d="M 2132.763 -315.631 C 2165.593 -315.719 2192.113 -350.904 2192.003 -394.22 C 2191.883 -437.535 2165.173 -472.579 2132.343 -472.491 C 2099.503 -472.404 2072.983 -437.219 2073.103 -393.903 C 2073.213 -350.588 2099.923 -315.544 2132.763 -315.631 Z" fill="#1E2128"/>
    <path d="M 2147.763 -385.962 C 2157.683 -385.988 2165.693 -397.802 2165.653 -412.349 C 2165.613 -426.897 2157.543 -438.668 2147.623 -438.642 C 2137.703 -438.615 2129.693 -426.801 2129.733 -412.254 C 2129.773 -397.707 2137.843 -385.935 2147.763 -385.962 Z" fill="white"/>
    <path d="M 2487.003 -393.922 C 2487.123 -437.238 2460.593 -472.423 2427.763 -472.511 C 2394.933 -472.598 2368.223 -437.554 2368.103 -394.239 C 2367.993 -350.923 2394.513 -315.738 2427.343 -315.65 C 2460.183 -315.563 2486.893 -350.607 2487.003 -393.922 Z" fill="#1E2128"/>
    <path d="M 2430.373 -412.263 C 2430.403 -426.81 2422.393 -438.625 2412.483 -438.651 C 2402.563 -438.678 2394.483 -426.906 2394.453 -412.359 C 2394.413 -397.812 2402.423 -385.997 2412.343 -385.971 C 2422.253 -385.945 2430.333 -397.716 2430.373 -412.263 Z" fill="white"/>
    <path d="M 2165.003 -252.418 C 2164.143 -252.418 2163.273 -252.438 2162.403 -252.468 L 2055.733 -256.218 C 2017.043 -257.578 1986.003 -288.958 1985.063 -327.668 L 1981.973 -455.128 C 1981.503 -474.318 1988.763 -492.318 2002.413 -505.818 C 2016.063 -519.318 2034.063 -526.368 2053.323 -525.708 L 2183.723 -521.128 C 2202.903 -520.458 2220.443 -512.138 2233.113 -497.718 C 2245.783 -483.298 2251.763 -464.828 2249.953 -445.718 L 2237.933 -318.788 C 2234.353 -281.098 2202.573 -252.418 2165.003 -252.418 Z M 2163.293 -277.448 C 2188.753 -276.548 2210.633 -295.738 2213.033 -321.138 L 2225.053 -448.068 C 2226.203 -460.248 2222.393 -472.018 2214.323 -481.218 C 2206.253 -490.408 2195.063 -495.708 2182.843 -496.138 L 2052.443 -500.718 C 2040.243 -501.128 2028.693 -496.648 2019.993 -488.038 C 2011.293 -479.428 2006.663 -467.958 2006.963 -455.728 L 2010.053 -328.268 C 2010.673 -302.768 2031.123 -282.098 2056.613 -281.198 L 2163.293 -277.448 Z" fill="#1E2128"/>
    <path d="M 2385.233 -259.688 C 2347.663 -259.688 2315.883 -288.368 2312.323 -326.048 L 2300.303 -452.978 C 2298.493 -472.088 2304.473 -490.558 2317.143 -504.978 C 2329.813 -519.398 2347.353 -527.718 2366.533 -528.388 L 2496.933 -532.968 C 2516.083 -533.618 2534.203 -526.578 2547.853 -513.078 C 2561.503 -499.578 2568.753 -481.578 2568.283 -462.388 L 2565.193 -334.928 C 2564.263 -296.228 2533.213 -264.838 2494.523 -263.478 L 2387.853 -259.738 C 2386.963 -259.708 2386.093 -259.688 2385.233 -259.688 Z M 2387.383 -272.228 L 2387.433 -272.228 L 2387.383 -272.228 Z M 2499.383 -508.018 C 2498.853 -508.018 2498.323 -508.008 2497.783 -507.988 L 2367.383 -503.408 C 2355.153 -502.978 2343.973 -497.678 2335.903 -488.488 C 2327.833 -479.298 2324.023 -467.518 2325.173 -455.338 L 2337.193 -328.408 C 2339.593 -303.018 2361.503 -283.878 2386.933 -284.718 L 2493.603 -288.468 C 2519.093 -289.368 2539.543 -310.038 2540.163 -335.538 L 2543.253 -463.008 C 2543.553 -475.238 2538.923 -486.708 2530.223 -495.318 C 2521.923 -503.538 2511.023 -508.018 2499.383 -508.018 Z" fill="#1E2128"/>
    <path d="M 2312.703 -413.318 C 2310.273 -413.318 2307.823 -414.028 2305.663 -415.498 C 2284.483 -429.958 2264.743 -429.958 2243.563 -415.498 C 2237.853 -411.608 2230.083 -413.078 2226.193 -418.768 C 2222.303 -424.468 2223.763 -432.248 2229.463 -436.138 C 2259.003 -456.308 2290.223 -456.308 2319.753 -436.138 C 2325.453 -432.248 2326.923 -424.468 2323.023 -418.768 C 2320.623 -415.218 2316.703 -413.318 2312.703 -413.318 Z" fill="#1E2128"/>
    <path d="M 2555.773 -432.318 C 2549.563 -432.318 2544.183 -436.938 2543.383 -443.258 C 2542.523 -450.108 2547.373 -456.358 2554.223 -457.218 L 2709.643 -476.778 C 2716.553 -477.628 2722.753 -472.778 2723.603 -465.938 C 2724.463 -459.088 2719.613 -452.838 2712.763 -451.978 L 2557.343 -432.418 C 2556.813 -432.358 2556.293 -432.318 2555.773 -432.318 Z" fill="#1E2128"/>
    <path d="M 2587.163 28.732 C 2585.383 28.732 2583.573 28.462 2581.783 27.882 C 2572.593 24.912 2567.533 15.052 2570.503 5.852 C 2572.783 -1.218 2573.943 -8.728 2573.943 -16.488 L 2573.943 -97.668 C 2573.943 -107.338 2581.783 -115.168 2591.443 -115.168 C 2601.103 -115.168 2608.943 -107.338 2608.943 -97.668 L 2608.943 -16.488 C 2608.943 -5.078 2607.223 6.052 2603.813 16.602 C 2601.413 24.012 2594.543 28.732 2587.163 28.732 Z" fill="#1E2128"/>
    <path d="M 2397.603 56.652 C 2392.293 56.652 2387.043 54.242 2383.603 49.672 C 2369.153 30.462 2361.513 7.612 2361.513 -16.418 C 2361.513 -26.088 2369.343 -33.958 2379.013 -33.958 C 2388.683 -33.958 2396.513 -26.158 2396.513 -16.498 C 2396.513 -0.048 2401.723 15.532 2411.573 28.622 C 2417.383 36.342 2415.833 47.312 2408.113 53.122 C 2404.963 55.512 2401.263 56.652 2397.603 56.652 Z" fill="#1E2128"/>
    <path d="M 2414.903 511.282 L 2255.763 470.462 C 2235.073 465.152 2213.173 467.162 2193.793 476.152 L 2128.643 506.352 C 2107.593 516.112 2090.973 533.412 2082.073 554.832 L 2066.523 592.232 C 2056.143 617.212 2074.493 644.712 2101.543 644.712 L 2203.883 644.712 C 2208.823 644.712 2213.723 643.832 2218.353 642.102 L 2271.223 622.432 C 2279.903 619.972 2289.143 620.372 2297.563 623.582 L 2321.283 632.602 C 2333.103 637.102 2345.723 639.122 2358.353 638.562 L 2414.913 636.022 L 2414.913 511.282 L 2414.903 511.282 Z" style="fill: rgb(208, 179, 138);"/>
    <g opacity="0.55" transform="matrix(1, 0, 0, 1, 631.163147, -1267.75769)">
      <g opacity="0.55">
        <g opacity="0.55">
          <g opacity="0.55">
            <g opacity="0.55">
              <g opacity="0.55">
                <path opacity="0.55" d="M1783.73 1789.59V1823.18L1635.15 1785.05C1614.52 1779.76 1592.62 1781.77 1573.19 1790.78L1508.1 1820.94C1487.02 1830.7 1470.42 1848.05 1461.48 1869.42L1445.99 1906.88C1445.25 1908.74 1444.57 1910.6 1444.2 1912.47C1433.48 1902.27 1428.93 1885.88 1435.34 1870.54L1450.91 1833.15C1459.85 1811.7 1476.46 1794.42 1497.46 1784.67L1562.63 1754.43C1581.99 1745.49 1603.89 1743.48 1624.59 1748.77L1783.73 1789.59Z" fill="white"/>
              </g>
            </g>
          </g>
        </g>
      </g>
    </g>
    <path d="M 2203.873 662.212 L 2101.533 662.212 C 2082.973 662.212 2065.733 652.992 2055.433 637.552 C 2045.123 622.112 2043.233 602.662 2050.353 585.512 L 2065.893 548.112 C 2076.513 522.572 2096.173 502.102 2121.263 490.472 L 2186.413 460.272 C 2209.393 449.622 2235.563 447.222 2260.093 453.512 L 2419.243 494.332 C 2426.983 496.312 2432.393 503.292 2432.393 511.282 L 2432.393 636.032 C 2432.393 645.392 2425.023 653.092 2415.673 653.512 L 2359.113 656.052 C 2343.993 656.742 2329.173 654.352 2315.043 648.962 L 2291.333 639.942 C 2286.643 638.162 2281.423 637.862 2276.563 639.112 L 2224.443 658.502 C 2217.853 660.972 2210.933 662.212 2203.873 662.212 Z M 2414.903 636.032 L 2414.953 636.032 L 2414.903 636.032 Z M 2232.783 485.062 C 2221.923 485.062 2211.103 487.402 2201.143 492.022 L 2135.993 522.232 C 2118.873 530.162 2105.463 544.132 2098.213 561.562 L 2082.673 598.962 C 2080.013 605.372 2080.693 612.362 2084.543 618.142 C 2088.393 623.912 2094.583 627.232 2101.533 627.232 L 2203.873 627.232 C 2206.743 627.232 2209.563 626.722 2212.243 625.722 L 2265.113 606.052 C 2265.553 605.892 2265.993 605.742 2266.443 605.622 C 2278.653 602.162 2291.913 602.732 2303.783 607.252 L 2327.503 616.272 C 2337.143 619.942 2347.263 621.572 2357.563 621.102 L 2397.403 619.312 L 2397.403 524.872 L 2251.413 487.422 C 2245.303 485.842 2239.033 485.062 2232.783 485.062 Z" fill="#1E2128"/>
    <path d="M 2766.343 788.212 C 2766.193 788.212 2766.043 788.212 2765.903 788.212 L 1826.133 764.342 C 1821.033 764.212 1816.243 761.862 1813.023 757.912 C 1809.803 753.962 1808.453 748.802 1809.353 743.782 L 1850.853 510.402 C 1852.333 502.052 1859.603 495.962 1868.083 495.962 L 1958.913 495.962 L 2089.263 219.302 C 2113.823 164.862 2157.843 121.842 2213.103 98.422 L 2390.763 23.052 C 2398.193 19.902 2406.803 22.242 2411.623 28.702 C 2419.603 39.402 2430.413 47.832 2442.893 53.062 C 2445.153 54.042 2447.323 54.842 2449.533 55.522 C 2452.743 56.522 2456.063 57.312 2459.453 57.892 C 2459.953 57.952 2460.443 58.022 2460.933 58.122 C 2462.833 58.422 2464.963 58.652 2467.763 58.852 C 2470.163 59.032 2472.493 58.872 2474.843 59.182 C 2475.043 59.202 2475.423 59.172 2475.803 59.172 C 2476.003 59.172 2476.203 59.172 2476.403 59.182 C 2482.313 59.392 2488.303 59.382 2494.203 59.182 C 2497.183 59.112 2499.863 59.052 2502.613 58.852 C 2505.743 58.632 2508.013 58.382 2509.993 58.042 C 2513.823 57.422 2517.403 56.592 2520.803 55.532 C 2523.053 54.842 2525.223 54.042 2527.313 53.132 C 2548.203 44.432 2563.833 27.302 2570.433 6.042 C 2572.003 0.972 2575.793 -3.108 2580.723 -5.048 C 2585.663 -6.988 2591.203 -6.598 2595.813 -3.968 L 2803.303 114.432 C 2858.083 145.732 2892.553 201.982 2895.543 264.902 L 2907.223 508.862 C 2907.223 508.872 2907.223 508.872 2907.223 508.872 C 2909.063 547.752 2895.283 584.682 2868.413 612.852 C 2845.613 636.762 2816.063 651.552 2783.833 655.492 L 2783.833 770.722 C 2783.833 775.442 2781.933 779.962 2778.553 783.252 C 2775.293 786.432 2770.903 788.212 2766.343 788.212 Z M 1847.373 729.872 L 2748.843 752.772 L 2748.843 639.042 C 2748.843 629.372 2756.683 621.542 2766.343 621.542 C 2795.633 621.542 2822.883 609.872 2843.093 588.692 C 2863.293 567.522 2873.653 539.762 2872.263 510.532 L 2860.583 266.562 C 2858.173 215.652 2830.273 170.142 2785.953 144.822 L 2595.553 36.172 C 2583.673 58.122 2564.563 75.532 2540.993 85.342 C 2537.943 86.662 2534.543 87.912 2531.123 88.962 C 2526.213 90.482 2521.013 91.702 2515.723 92.552 C 2512.733 93.062 2509.413 93.442 2505.113 93.742 C 2501.813 93.982 2498.573 94.062 2495.263 94.142 C 2488.793 94.362 2482.093 94.372 2475.493 94.142 C 2474.423 94.142 2473.083 94.132 2471.563 93.992 C 2469.453 93.972 2467.383 93.882 2465.253 93.732 C 2461.333 93.452 2458.203 93.112 2455.213 92.622 C 2455.033 92.602 2454.843 92.572 2454.663 92.542 C 2449.373 91.692 2444.173 90.472 2439.203 88.932 C 2435.823 87.892 2432.423 86.642 2429.163 85.232 C 2415.423 79.462 2402.963 70.932 2392.633 60.252 L 2226.763 130.622 C 2179.633 150.602 2142.083 187.292 2121.033 233.942 L 1985.833 520.912 C 1982.943 527.042 1976.773 530.952 1970.003 530.952 L 1882.733 530.952 L 1847.373 729.872 Z" fill="#1E2128"/>
    <path d="M 2671.813 325.132 C 2678.993 360.072 2682.633 395.012 2685.753 429.952 C 2686.433 438.692 2687.113 447.422 2687.613 456.162 L 2688.003 462.712 L 2688.103 464.352 C 2688.133 464.942 2688.113 466.042 2688.113 466.862 C 2688.133 468.642 2687.923 470.422 2687.683 472.202 C 2686.603 479.302 2683.673 486.182 2679.233 491.912 C 2674.813 497.682 2668.853 502.302 2662.033 505.152 C 2658.653 506.612 2655.053 507.602 2651.403 508.142 L 2648.663 508.472 L 2646.833 508.642 L 2643.573 508.932 C 2634.863 509.712 2626.163 510.502 2617.443 511.082 C 2582.603 513.822 2547.693 515.382 2512.773 516.672 C 2477.853 518.002 2442.933 519.292 2408.043 521.172 L 2424.603 503.672 L 2424.583 639.042 L 2407.083 621.542 L 2766.333 621.542 C 2775.993 621.542 2783.833 629.382 2783.833 639.042 C 2783.833 648.712 2775.993 656.542 2766.333 656.542 L 2407.083 656.542 C 2397.413 656.542 2389.583 648.712 2389.583 639.042 L 2389.553 503.672 C 2389.553 494.342 2396.923 486.702 2406.123 486.172 C 2441.013 484.222 2475.863 481.692 2510.713 479.192 C 2545.563 476.652 2580.433 474.382 2615.363 473.302 C 2624.093 472.922 2632.833 472.762 2641.563 472.582 L 2646.793 472.472 C 2647.473 472.452 2648.153 472.382 2648.803 472.172 C 2650.133 471.822 2651.383 471.062 2652.503 470.072 C 2653.603 469.062 2654.443 467.752 2654.933 466.262 C 2655.003 465.882 2655.203 465.512 2655.243 465.102 C 2655.283 464.832 2655.343 464.842 2655.383 464.342 L 2655.483 462.702 L 2655.883 456.152 C 2656.393 447.422 2657.083 438.682 2657.763 429.952 C 2660.933 395.012 2664.603 360.072 2671.813 325.132 Z" fill="#1E2128"/>
    <path d="M 2239.243 299.232 L 2222.103 470.412 C 2221.133 480.082 2212.513 487.132 2202.843 486.162 C 2193.173 485.192 2186.123 476.572 2187.093 466.902 C 2187.213 465.722 2187.473 464.492 2187.813 463.392 L 2239.243 299.232 Z" fill="#1E2128"/>
    <g opacity="0.3" transform="matrix(1, 0, 0, 1, 631.163147, -1267.75769)">
      <g opacity="0.3">
        <g opacity="0.3">
          <g opacity="0.3">
            <g opacity="0.3">
              <g opacity="0.3">
                <path opacity="0.3" d="M2135.18 1906.3H2134.68V1906.8V2018.98L1871.02 2031.29L1728.21 2037.91L1736.55 2028.63L1757.59 2005.27L1757.77 2005.08L1757.71 2004.83L1736.71 1912.84L1783.86 1904.22L1784.26 1904.15L1784.27 1903.74L1786.07 1843.33L2092 1821.87C2126.56 1819.45 2152.74 1789.68 2150.72 1755.1L2139.43 1561.41C2137.08 1521.05 2114.68 1484.56 2079.76 1464.2L1874.35 1344.41C1876.87 1344.2 1879.38 1343.93 1881.86 1343.5C1886.38 1342.77 1890.76 1341.75 1894.99 1340.44C1897.83 1339.56 1900.61 1338.54 1903.31 1337.37C1928.5 1326.87 1948.01 1305.74 1956.29 1279.69L2163.23 1397.78C2212.34 1425.85 2243.73 1476.98 2246.41 1533.47L2258.08 1777.47C2261.41 1847.63 2205.4 1906.3 2135.18 1906.3Z" fill="#1E2128" stroke="#1E2128"/>
              </g>
            </g>
          </g>
        </g>
      </g>
    </g>
    <path d="M 2388.203 694.592 C 2388.203 710.992 2381.543 725.902 2370.783 736.662 C 2360.013 747.432 2345.143 754.082 2328.713 754.082 L 1943.013 754.082 C 1910.143 754.082 1883.513 727.412 1883.513 694.582 C 1883.513 678.152 1890.173 663.272 1900.933 652.472 C 1911.703 641.702 1926.573 635.052 1943.003 635.052 L 2328.703 635.052 C 2361.573 635.052 2388.203 661.722 2388.203 694.592 Z" fill="#D0D0D0"/>
    <path d="M 2328.703 771.592 L 1943.003 771.592 C 1900.543 771.592 1866.003 737.052 1866.003 694.592 C 1866.003 674.052 1874.003 654.702 1888.533 640.122 C 1903.093 625.562 1922.433 617.552 1943.003 617.552 L 2328.703 617.552 C 2371.163 617.552 2405.703 652.112 2405.703 694.592 C 2405.703 715.162 2397.693 734.502 2383.153 749.042 C 2368.613 763.582 2349.273 771.592 2328.703 771.592 Z M 1943.003 652.552 C 1931.783 652.552 1921.233 656.922 1913.303 664.852 C 1905.383 672.802 1901.003 683.372 1901.003 694.592 C 1901.003 717.752 1919.843 736.592 1943.003 736.592 L 2328.703 736.592 C 2339.923 736.592 2350.473 732.222 2358.403 724.292 C 2366.333 716.362 2370.703 705.812 2370.703 694.592 C 2370.703 671.412 2351.863 652.552 2328.703 652.552 L 1943.003 652.552 Z" fill="#1E2128"/>
    <path d="M 1943.003 754.092 L 1103.583 754.092 C 1070.713 754.092 1044.053 727.422 1044.053 694.592 C 1044.053 678.162 1050.713 663.282 1061.513 652.482 C 1072.283 641.712 1087.153 635.062 1103.583 635.062 L 1943.003 635.062 C 1926.573 635.062 1911.693 641.722 1900.933 652.482 C 1890.163 663.282 1883.513 678.162 1883.513 694.592 C 1883.503 727.422 1910.133 754.092 1943.003 754.092 Z" fill="#D0D0D0"/>
    <g opacity="0.55" transform="matrix(1, 0, 0, 1, 631.163147, -1267.75769)">
      <g opacity="0.55">
        <g opacity="0.55">
          <g opacity="0.55">
            <g opacity="0.55">
              <g opacity="0.55">
                <path opacity="0.55" d="M511.65 2021.85H477.41C444.54 2021.85 417.88 1995.18 417.88 1962.35C417.88 1945.92 424.54 1931.04 435.34 1920.24C446.11 1909.47 460.98 1902.82 477.41 1902.82H511.65C495.22 1902.82 480.34 1909.48 469.58 1920.24C458.78 1931.04 452.12 1945.92 452.12 1962.35C452.12 1995.18 478.79 2021.85 511.65 2021.85Z" fill="white"/>
              </g>
            </g>
          </g>
        </g>
      </g>
    </g>
    <path d="M 2328.703 771.592 L 1943.003 771.592 C 1900.543 771.592 1866.003 737.052 1866.003 694.592 C 1866.003 674.052 1874.003 654.702 1888.533 640.122 C 1903.093 625.562 1922.433 617.552 1943.003 617.552 L 2328.703 617.552 C 2371.163 617.552 2405.703 652.112 2405.703 694.592 C 2405.703 715.162 2397.693 734.502 2383.153 749.042 C 2368.613 763.582 2349.273 771.592 2328.703 771.592 Z M 1943.003 652.552 C 1931.783 652.552 1921.233 656.922 1913.303 664.852 C 1905.383 672.802 1901.003 683.372 1901.003 694.592 C 1901.003 717.752 1919.843 736.592 1943.003 736.592 L 2328.703 736.592 C 2339.923 736.592 2350.473 732.222 2358.403 724.292 C 2366.333 716.362 2370.703 705.812 2370.703 694.592 C 2370.703 671.412 2351.863 652.552 2328.703 652.552 L 1943.003 652.552 Z" fill="#1E2128"/>
    <path d="M 1943.003 771.592 L 1103.583 771.592 C 1061.103 771.592 1026.553 737.052 1026.553 694.592 C 1026.553 674.022 1034.573 654.672 1049.143 640.102 C 1063.683 625.562 1083.023 617.552 1103.593 617.552 L 1943.013 617.552 C 1952.683 617.552 1960.513 625.382 1960.513 635.052 C 1960.513 644.722 1952.683 652.552 1943.013 652.552 C 1931.793 652.552 1921.243 656.922 1913.313 664.852 C 1905.393 672.802 1901.013 683.372 1901.013 694.592 C 1901.013 717.752 1919.853 736.592 1943.013 736.592 C 1952.683 736.592 1960.513 744.422 1960.513 754.092 C 1960.503 763.752 1952.673 771.592 1943.003 771.592 Z M 1103.583 652.552 C 1092.363 652.552 1081.813 656.922 1073.883 664.852 C 1065.923 672.812 1061.543 683.372 1061.543 694.592 C 1061.543 717.752 1080.403 736.592 1103.573 736.592 L 1878.483 736.592 C 1870.583 724.502 1865.993 710.082 1865.993 694.592 C 1865.993 679.452 1870.343 664.962 1878.443 652.552 L 1103.583 652.552 Z" fill="#1E2128"/>
    <path d="M 1859.633 684.502 C 1855.033 685.722 1850.463 686.362 1845.943 686.402 L 1043.343 686.402 C 1041.743 686.482 1040.143 686.442 1038.583 686.362 C 1015.073 685.182 993.923 669.132 987.453 645.162 L 801.283 -40.758 C 793.223 -70.508 810.793 -101.168 840.583 -109.308 C 845.453 -110.638 850.393 -111.288 855.233 -111.288 C 855.993 -111.288 856.753 -111.288 857.513 -111.178 L 1656.953 -111.258 C 1657.563 -111.298 1658.173 -111.298 1658.783 -111.298 C 1683.433 -111.298 1705.993 -94.898 1712.723 -70.018 L 1898.903 615.912 C 1906.993 645.702 1889.423 676.402 1859.633 684.502 Z" fill="#B8C5D3"/>
    <g opacity="0.55" transform="matrix(1, 0, 0, 1, 631.163147, -1267.75769)">
      <g opacity="0.55">
        <g opacity="0.55">
          <g opacity="0.55">
            <g opacity="0.55">
              <g opacity="0.55">
                <path opacity="0.55" d="M250.99 1156.59H245.28C246.46 1156.51 247.64 1156.48 248.78 1156.48C249.55 1156.47 250.23 1156.47 250.99 1156.59Z" fill="white"/>
              </g>
            </g>
          </g>
        </g>
      </g>
      <g opacity="0.55">
        <g opacity="0.55">
          <g opacity="0.55">
            <g opacity="0.55">
              <g opacity="0.55">
                <path opacity="0.55" d="M251 1174.09H245.29L244.17 1139.13C245.73 1139.03 247.29 1138.98 248.79 1138.98C249.89 1138.98 251.55 1138.98 253.6 1139.29L251 1174.09Z" fill="#1E2128"/>
              </g>
            </g>
          </g>
        </g>
      </g>
    </g>
    <g opacity="0.6" transform="matrix(1, 0, 0, 1, 631.163147, -1267.75769)">
      <g opacity="0.6">
        <g opacity="0.6">
          <g opacity="0.6">
            <g opacity="0.6">
              <g opacity="0.6">
                <path opacity="0.6" d="M1002.43 1156.52L985.99 1186.94H982.96L971.78 1216.1H210.37C204.71 1216.1 200.36 1221.42 201.82 1226.89C201.83 1226.93 201.84 1226.96 201.85 1227L388 1912.94C394.52 1937.07 415.95 1953.19 439.61 1954.17H419.16C393.82 1955.1 370.2 1938.52 363.26 1912.94L177.3 1227.7L177.11 1227C169.05 1197.23 186.61 1166.58 216.38 1158.43C221.27 1157.13 226.21 1156.47 231.05 1156.47C231.8 1156.47 232.54 1156.47 233.33 1156.56H257.97L1002.43 1156.52Z" fill="white"/>
              </g>
            </g>
          </g>
        </g>
      </g>
    </g>
    <path d="M 1844.863 703.962 C 1811.713 703.962 1782.883 682.002 1774.173 649.742 L 1587.993 -36.168 C 1577.413 -75.168 1600.553 -115.558 1639.593 -126.198 C 1647.153 -128.248 1654.833 -129.348 1662.413 -128.648 C 1694.253 -127.148 1721.203 -105.498 1729.593 -74.588 L 1915.783 611.342 C 1920.933 630.212 1918.413 649.982 1908.683 667.002 C 1898.943 684.032 1883.153 696.242 1864.223 701.382 C 1864.193 701.392 1864.163 701.402 1864.123 701.402 C 1858.613 702.862 1853.043 703.712 1847.573 703.902 C 1846.663 703.952 1845.763 703.962 1844.863 703.962 Z M 1859.633 684.492 L 1859.683 684.492 L 1859.633 684.492 Z M 1658.823 -93.788 C 1655.513 -93.788 1652.133 -93.328 1648.773 -92.418 C 1628.363 -86.858 1616.243 -65.728 1621.783 -45.328 L 1807.963 640.602 C 1812.643 657.942 1828.383 669.572 1846.313 668.942 C 1849.163 668.842 1852.123 668.382 1855.113 667.592 C 1864.983 664.902 1873.223 658.522 1878.303 649.632 C 1883.393 640.742 1884.713 630.412 1882.013 620.552 L 1695.823 -65.408 C 1691.403 -81.678 1677.183 -93.048 1660.443 -93.688 C 1660.043 -93.708 1659.643 -93.738 1659.243 -93.778 L 1658.823 -93.788 Z M 1658.773 -93.838 C 1658.793 -93.838 1658.813 -93.838 1658.833 -93.828 C 1658.813 -93.838 1658.793 -93.838 1658.773 -93.838 Z" fill="#1E2128"/>
    <g opacity="0.3" transform="matrix(1, 0, 0, 1, 631.163147, -1267.75769)">
      <g opacity="0.3">
        <g opacity="0.3">
          <g opacity="0.3">
            <g opacity="0.3">
              <g opacity="0.3">
                <path opacity="0.3" d="M1228.47 1959.27C1224.25 1960.39 1219.99 1961.05 1215.77 1961.2C1190.43 1962.11 1166.81 1945.56 1159.9 1919.96L973.71 1234.03C965.63 1204.27 983.21 1173.59 1013.02 1165.47C1017.9 1164.15 1022.82 1163.49 1027.65 1163.49C1028.41 1163.49 1029.17 1163.49 1029.94 1163.59C1053.61 1164.5 1074.99 1180.65 1081.54 1204.78L1267.73 1890.71C1275.85 1920.47 1258.23 1951.2 1228.47 1959.27Z" fill="#1E2128"/>
              </g>
            </g>
          </g>
        </g>
      </g>
    </g>
    <path d="M 1041.233 703.942 C 1008.103 703.942 979.263 681.982 970.543 649.742 L 784.373 -36.168 C 773.813 -75.148 796.943 -115.528 835.943 -126.188 C 842.253 -127.908 848.733 -128.788 855.203 -128.788 C 856.013 -128.788 857.123 -128.788 858.443 -128.678 L 1656.503 -128.758 C 1657.253 -128.788 1658.013 -128.798 1658.773 -128.798 C 1691.843 -128.798 1720.973 -106.508 1729.613 -74.598 L 1915.783 611.312 C 1926.403 650.342 1903.273 690.752 1864.233 701.372 C 1864.193 701.382 1864.153 701.392 1864.113 701.402 C 1858.063 703.002 1852.003 703.832 1846.083 703.882 L 1043.613 703.882 C 1042.823 703.932 1042.023 703.942 1041.233 703.942 Z M 1859.633 684.502 L 1859.683 684.502 L 1859.633 684.502 Z M 855.513 -93.778 C 851.743 -93.768 848.423 -93.308 845.173 -92.418 C 824.753 -86.838 812.633 -65.708 818.153 -45.328 L 1004.333 640.592 C 1009.023 657.932 1024.753 669.582 1042.693 668.922 C 1042.903 668.912 1043.113 668.912 1043.323 668.912 L 1845.943 668.912 C 1848.773 668.892 1851.903 668.452 1855.113 667.602 C 1875.503 662.022 1887.563 640.912 1882.013 620.512 L 1695.833 -65.418 C 1691.313 -82.118 1676.073 -93.778 1658.783 -93.778 L 1658.043 -93.778 C 1657.793 -93.768 1657.213 -93.748 1656.963 -93.748 L 857.503 -93.668 C 856.833 -93.668 856.163 -93.708 855.513 -93.778 Z M 854.873 -93.868 C 854.903 -93.868 854.923 -93.858 854.953 -93.858 C 854.923 -93.858 854.903 -93.858 854.873 -93.868 Z" fill="#1E2128"/>
    <path d="M 1301.649 398.712 C 1324.717 390.092 1331.134 350.242 1315.982 309.722 C 1300.83 269.192 1269.848 243.332 1246.78 251.952 C 1223.712 260.582 1217.295 300.422 1232.447 340.952 C 1247.599 381.482 1278.582 407.342 1301.649 398.712 Z" fill="#1E2128"/>
    <g opacity="0.3" transform="matrix(1, 0, 0, 1, 631.163147, -1267.75769)">
      <g opacity="0.3">
        <g opacity="0.3">
          <g opacity="0.3">
            <g opacity="0.3">
              <g opacity="0.3">
                <path opacity="0.3" d="M1021.13 1401.67C1074.03 1793.89 858.32 1946.29 480.73 1954.16H1175.94L1163.58 1930.76L1021.13 1401.67Z" fill="#1E2128"/>
              </g>
            </g>
          </g>
        </g>
      </g>
    </g>
    <path d="M 2240.553 703.012 L 2290.443 703.012 C 2292.993 703.012 2295.053 700.942 2295.053 698.402 L 2295.053 683.752 C 2295.053 681.202 2292.983 679.132 2290.443 679.132 L 2240.553 679.132 C 2238.003 679.132 2235.943 681.202 2235.943 683.752 L 2235.943 698.402 C 2235.943 700.952 2238.003 703.012 2240.553 703.012 Z" fill="#1E2128"/>
    <path d="M 2157.793 703.012 L 2207.683 703.012 C 2210.233 703.012 2212.293 700.942 2212.293 698.402 L 2212.293 683.752 C 2212.293 681.202 2210.223 679.132 2207.683 679.132 L 2157.793 679.132 C 2155.243 679.132 2153.183 681.202 2153.183 683.752 L 2153.183 698.402 C 2153.183 700.952 2155.243 703.012 2157.793 703.012 Z" fill="#1E2128"/>
    <g opacity="0.3" transform="matrix(1, 0, 0, 1, 631.163147, -1267.75769)">
      <g opacity="0.3">
        <g opacity="0.3">
          <g opacity="0.3">
            <g opacity="0.3">
              <g opacity="0.3">
                <path opacity="0.3" d="M1757.04 1955.36C1757.04 1971.76 1750.38 1986.67 1739.62 1997.43C1728.85 2008.2 1713.98 2014.85 1697.55 2014.85H1311.85C1278.98 2014.85 1252.35 1988.18 1252.35 1955.35C1252.35 1938.92 1259.01 1924.04 1269.77 1913.24C1280.54 1902.47 1295.41 1895.82 1311.84 1895.82H1697.54C1730.41 1895.83 1757.04 1922.49 1757.04 1955.36Z" fill="#1E2128"/>
              </g>
            </g>
          </g>
        </g>
      </g>
    </g>
    <g opacity="0.32" transform="matrix(1, 0, 0, 1, 631.163147, -1267.75769)">
      <g opacity="0.32">
        <g opacity="0.32">
          <g opacity="0.32">
            <g opacity="0.32">
              <g opacity="0.32">
                <path opacity="0.32" d="M327.31 1475.93C312.34 1416.94 304.11 1368.13 337.82 1359.57C371.53 1351.02 410.99 1391.9 425.96 1450.9C440.93 1509.9 425.73 1564.65 392.02 1573.2C358.31 1581.75 342.28 1534.92 327.31 1475.93Z" fill="white"/>
              </g>
            </g>
          </g>
        </g>
      </g>
    </g>
    <g opacity="0.32" transform="matrix(1, 0, 0, 1, 631.163147, -1267.75769)">
      <g opacity="0.32">
        <g opacity="0.32">
          <g opacity="0.32">
            <g opacity="0.32">
              <g opacity="0.32">
                <path opacity="0.32" d="M383.64 1683.86C377.53 1659.76 375.15 1639.58 397.44 1633.92C419.74 1628.26 442.77 1643.21 448.88 1667.31C454.99 1691.41 441.88 1715.52 419.58 1721.18C397.28 1726.83 389.75 1707.95 383.64 1683.86Z" fill="white"/>
              </g>
            </g>
          </g>
        </g>
      </g>
    </g>
    <path d="M 3625.693 859.822 L 809.863 859.822 C 780.783 859.822 757.203 836.242 757.203 807.162 C 757.203 778.082 780.783 754.502 809.863 754.502 L 3625.693 754.502 C 3654.773 754.502 3678.353 778.082 3678.353 807.162 C 3678.353 836.252 3654.773 859.822 3625.693 859.822 Z" fill="#666666"/>
    <g opacity="0.55" transform="matrix(1, 0, 0, 1, 631.163147, -1267.75769)">
      <g opacity="0.55">
        <g opacity="0.55">
          <g opacity="0.55">
            <g opacity="0.55">
              <g opacity="0.55">
                <path opacity="0.55" d="M3047.2 2074.9C3047.2 2081.57 3045.98 2087.88 3043.72 2093.74C3036.13 2073.98 3016.94 2059.95 2994.51 2059.95H178.71C164.16 2059.95 151 2065.86 141.44 2075.37C136.28 2080.53 132.17 2086.79 129.5 2093.74C127.24 2087.89 126.02 2081.57 126.02 2074.9C126.02 2060.41 131.93 2047.19 141.44 2037.69C151 2028.18 164.16 2022.27 178.71 2022.27H2994.51C3023.61 2022.27 3047.2 2045.86 3047.2 2074.9Z" fill="white"/>
              </g>
            </g>
          </g>
        </g>
      </g>
    </g>
    <path d="M 3625.693 877.322 L 809.873 877.322 C 771.183 877.322 739.713 845.852 739.713 807.162 C 739.713 768.472 771.183 737.002 809.873 737.002 L 3625.703 737.002 C 3664.393 737.002 3695.863 768.472 3695.863 807.162 C 3695.853 845.852 3664.383 877.322 3625.693 877.322 Z M 809.873 772.002 C 790.483 772.002 774.713 787.772 774.713 807.162 C 774.713 826.552 790.483 842.322 809.873 842.322 L 3625.703 842.322 C 3645.093 842.322 3660.863 826.552 3660.863 807.162 C 3660.863 787.772 3645.093 772.002 3625.703 772.002 L 809.873 772.002 Z" fill="#1E2128"/>
    <path d="M 2977.143 650.242 C 2977.143 619.212 3002.303 594.052 3033.333 594.052 L 3507.923 594.052 C 3521.403 594.052 3532.333 583.122 3532.333 569.642 C 3532.333 556.162 3521.403 545.232 3507.923 545.232 L 3028.853 545.232 C 2970.863 545.232 2923.853 592.242 2923.853 650.232 C 2923.853 708.222 2970.863 755.232 3028.853 755.232 L 3507.923 755.232 C 3521.403 755.232 3532.333 744.302 3532.333 730.822 C 3532.333 717.342 3521.403 706.412 3507.923 706.412 L 3033.333 706.412 C 3002.303 706.432 2977.143 681.272 2977.143 650.242 Z" style="fill: rgb(64, 112, 244);"/>
    <path d="M 3507.923 767.742 L 3028.853 767.742 C 2964.063 767.742 2911.353 715.032 2911.353 650.242 C 2911.353 585.452 2964.063 532.742 3028.853 532.742 L 3507.923 532.742 C 3528.273 532.742 3544.833 549.302 3544.833 569.652 C 3544.833 590.002 3528.273 606.562 3507.923 606.562 L 3033.343 606.562 C 3009.253 606.562 2989.653 626.162 2989.653 650.252 C 2989.653 674.342 3009.253 693.942 3033.343 693.942 L 3507.923 693.942 C 3528.273 693.942 3544.833 710.492 3544.833 730.842 C 3544.833 751.182 3528.273 767.742 3507.923 767.742 Z M 3028.853 557.742 C 2977.843 557.742 2936.353 599.232 2936.353 650.242 C 2936.353 701.252 2977.843 742.742 3028.853 742.742 L 3507.923 742.742 C 3514.493 742.742 3519.833 737.402 3519.833 730.832 C 3519.833 724.262 3514.493 718.932 3507.923 718.932 L 3033.343 718.932 C 2995.463 718.932 2964.653 688.122 2964.653 650.242 C 2964.653 612.372 2995.463 581.552 3033.343 581.552 L 3507.923 581.552 C 3514.493 581.552 3519.833 576.212 3519.833 569.642 C 3519.833 563.072 3514.493 557.732 3507.923 557.732 L 3028.853 557.732 L 3028.853 557.742 Z" fill="#1E2128"/>
    <g opacity="0.5" transform="matrix(1, 0, 0, 1, 631.163147, -1267.75769)">
      <g opacity="0.5">
        <g opacity="0.5">
          <g opacity="0.5">
            <g opacity="0.5">
              <g opacity="0.5">
                <path opacity="0.5" d="M2876.76 1985.9H2402.17C2385.43 1985.9 2370.12 1979.78 2358.27 1969.71C2370.73 1984.37 2389.27 1993.71 2409.98 1993.71H2884.57C2886.03 1993.71 2887.4 1994.01 2888.71 1994.46C2886.98 1989.49 2882.3 1985.9 2876.76 1985.9Z" fill="white"/>
              </g>
            </g>
          </g>
        </g>
      </g>
    </g>
    <g opacity="0.5" transform="matrix(1, 0, 0, 1, 631.163147, -1267.75769)">
      <g opacity="0.5">
        <g opacity="0.5">
          <g opacity="0.5">
            <g opacity="0.5">
              <g opacity="0.5">
                <path opacity="0.5" d="M2312.21 1925.81C2312.21 1874.37 2354.06 1832.52 2405.5 1832.52H2884.57C2886.03 1832.52 2887.4 1832.82 2888.71 1833.27C2886.98 1828.31 2882.31 1824.71 2876.77 1824.71H2397.7C2346.26 1824.71 2304.41 1866.56 2304.41 1918C2304.41 1945.7 2316.56 1970.61 2335.8 1987.71C2321.13 1971.23 2312.21 1949.54 2312.21 1925.81Z" fill="white"/>
              </g>
            </g>
          </g>
        </g>
      </g>
    </g>
    <path d="M 3029.813 594.052 C 3000.723 594.052 2977.143 619.212 2977.143 650.242 C 2977.143 681.272 3000.723 706.432 3029.813 706.432 L 3500.073 706.432 L 3500.073 594.052 L 3029.813 594.052 Z" fill="white"/>
    <path d="M 3500.073 718.142 L 3029.813 718.142 C 2994.313 718.142 2965.433 687.682 2965.433 650.242 C 2965.433 612.802 2994.313 582.342 3029.813 582.342 L 3500.073 582.342 C 3506.543 582.342 3511.783 587.582 3511.783 594.052 L 3511.783 706.432 C 3511.783 712.902 3506.543 718.142 3500.073 718.142 Z M 3029.813 605.762 C 3007.233 605.762 2988.853 625.712 2988.853 650.242 C 2988.853 674.772 3007.223 694.722 3029.813 694.722 L 3488.363 694.722 L 3488.363 605.772 L 3029.813 605.772 L 3029.813 605.762 Z" fill="#1E2128"/>
    <path d="M 3128.683 729.832 L 3110.933 715.632 C 3107.293 712.722 3102.113 712.722 3098.473 715.632 L 3080.723 729.832 C 3076.763 733.002 3070.893 730.182 3070.893 725.112 L 3070.893 652.972 C 3070.893 649.362 3073.823 646.422 3077.443 646.422 L 3131.963 646.422 C 3135.573 646.422 3138.513 649.352 3138.513 652.972 L 3138.513 725.112 C 3138.513 730.182 3132.643 733.002 3128.683 729.832 Z" fill="#FFEB3B"/>
    <path d="M 3076.973 741.182 C 3074.613 741.182 3072.233 740.652 3069.993 739.582 C 3064.383 736.882 3060.893 731.342 3060.893 725.112 L 3060.893 652.972 C 3060.893 643.852 3068.313 636.422 3077.433 636.422 L 3131.953 636.422 C 3141.083 636.422 3148.503 643.842 3148.503 652.972 L 3148.503 725.112 C 3148.503 731.342 3145.013 736.882 3139.403 739.572 C 3133.783 742.272 3127.283 741.532 3122.423 737.642 L 3104.683 723.442 L 3086.963 737.642 C 3084.053 739.982 3080.533 741.182 3076.973 741.182 Z M 3134.933 722.022 L 3134.983 722.022 L 3134.933 722.022 Z M 3104.703 703.422 C 3109.103 703.422 3113.503 704.892 3117.183 707.832 L 3128.503 716.892 L 3128.503 656.432 L 3080.893 656.432 L 3080.893 716.892 L 3092.223 707.832 C 3095.903 704.892 3100.303 703.422 3104.703 703.422 Z" fill="#1E2128"/>
    <g opacity="0.5" transform="matrix(1, 0, 0, 1, 631.163147, -1267.75769)">
      <g opacity="0.5">
        <g opacity="0.5">
          <g opacity="0.5">
            <g opacity="0.5">
              <g opacity="0.5">
                <path opacity="0.5" d="M2457.31 1923.94H2449.5V1985.15L2457.31 1978.91V1923.94Z" fill="white"/>
              </g>
            </g>
          </g>
        </g>
      </g>
    </g>
    <g opacity="0.5" transform="matrix(1, 0, 0, 1, 631.163147, -1267.75769)">
      <g opacity="0.5">
        <g opacity="0.5">
          <g opacity="0.5">
            <g opacity="0.5">
              <g opacity="0.5">
                <path opacity="0.5" d="M2493.68 1975.78C2490.05 1972.87 2485.7 1971.42 2481.35 1971.42C2480.04 1971.42 2478.74 1971.6 2477.45 1971.86C2480.44 1972.47 2483.34 1973.75 2485.87 1975.78L2497.59 1985.15V1978.91L2493.68 1975.78Z" fill="white"/>
              </g>
            </g>
          </g>
        </g>
      </g>
    </g>
    <path d="M 3141.903 637.412 L 3340.993 645.222 L 3141.903 653.032 C 3137.593 653.202 3133.963 649.842 3133.793 645.532 C 3133.623 641.222 3136.983 637.592 3141.293 637.422 C 3141.483 637.402 3141.703 637.402 3141.903 637.412 Z" fill="#1E2128"/>
    <g opacity="0.3" transform="matrix(1, 0, 0, 1, 631.163147, -1267.75769)">
      <g opacity="0.3">
        <g opacity="0.3">
          <g opacity="0.3">
            <g opacity="0.3">
              <g opacity="0.3">
                <path opacity="0.3" d="M2871.82 1892.07L2347.2 1940.26L2361.09 1882.18L2383.87 1860.84H2426.81H2871.82V1892.07Z" fill="#1E2128"/>
              </g>
            </g>
          </g>
        </g>
      </g>
    </g>
    <path d="M 3144.563 -1233.618 L 3677.243 -1233.618 C 3717.343 -1233.618 3749.843 -1201.108 3749.843 -1161.018 L 3749.843 -769.538 C 3749.843 -729.438 3717.333 -696.938 3677.243 -696.938 L 3354.063 -696.938 L 3238.783 -572.048 C 3210.773 -541.708 3160.083 -561.518 3160.083 -602.818 L 3160.083 -697.328 C 3110.763 -701.308 3071.953 -742.508 3071.953 -792.858 L 3071.953 -1161.028 C 3071.953 -1201.118 3104.463 -1233.618 3144.563 -1233.618 Z" fill="white"/>
    <path d="M 3205.603 -542.388 C 3198.193 -542.388 3190.693 -543.758 3183.463 -546.588 C 3160.143 -555.708 3145.083 -577.768 3145.083 -602.808 L 3145.083 -684.368 C 3094.683 -694.998 3056.963 -740.208 3056.963 -792.848 L 3056.963 -1161.008 C 3056.963 -1209.318 3096.263 -1248.608 3144.573 -1248.608 L 3677.253 -1248.608 C 3725.563 -1248.608 3764.863 -1209.308 3764.863 -1161.008 L 3764.863 -769.528 C 3764.863 -721.228 3725.563 -681.928 3677.253 -681.928 L 3360.643 -681.928 L 3249.813 -561.868 C 3238.083 -549.178 3222.063 -542.388 3205.603 -542.388 Z M 3144.563 -1218.628 C 3112.803 -1218.628 3086.953 -1192.788 3086.953 -1161.028 L 3086.953 -792.868 C 3086.953 -751.048 3119.603 -715.658 3161.283 -712.288 C 3169.073 -711.658 3175.073 -705.158 3175.073 -697.338 L 3175.073 -602.828 C 3175.073 -587.548 3185.053 -578.198 3194.383 -574.548 C 3203.723 -570.898 3217.383 -570.998 3227.753 -582.238 L 3343.033 -707.128 C 3345.873 -710.208 3349.873 -711.958 3354.053 -711.958 L 3677.233 -711.958 C 3708.993 -711.958 3734.843 -737.798 3734.843 -769.558 L 3734.843 -1161.038 C 3734.843 -1192.798 3709.003 -1218.638 3677.233 -1218.638 L 3144.563 -1218.638 L 3144.563 -1218.628 Z" fill="#1E2128"/>
    <g opacity="0.2" transform="matrix(1, 0, 0, 1, 631.163147, -1267.75769)">
      <g opacity="0.2">
        <g opacity="0.2">
          <g opacity="0.2">
            <g opacity="0.2">
              <g opacity="0.2">
                <path opacity="0.2" d="M3078.51 48.42C3067.11 192.87 2803.81 431.41 2698.09 521.73C2668.54 546.98 2643.18 576.74 2622.86 609.87L2561.16 710.44L2598.35 700.74L2714.44 571L3069.55 564.49L3126.13 515.05V91.27L3078.51 48.42Z" fill="#1E2128"/>
              </g>
            </g>
          </g>
        </g>
      </g>
    </g>
    <path d="M 3637.473 -775.978 L 3181.433 -775.978 C 3164.053 -775.978 3149.953 -790.068 3149.953 -807.458 L 3149.953 -1137.058 C 3149.953 -1150.268 3160.663 -1160.988 3173.883 -1160.988 L 3645.023 -1160.988 C 3658.233 -1160.988 3668.953 -1150.278 3668.953 -1137.058 L 3668.953 -807.458 C 3668.953 -790.068 3654.853 -775.978 3637.473 -775.978 Z" fill="#3C4A59"/>
    <path d="M 3637.473 -766.448 L 3181.433 -766.448 C 3158.823 -766.448 3140.433 -784.838 3140.433 -807.448 L 3140.433 -1137.048 C 3140.433 -1155.488 3155.433 -1170.498 3173.883 -1170.498 L 3645.023 -1170.498 C 3663.463 -1170.498 3678.473 -1155.488 3678.473 -1137.048 L 3678.473 -807.448 C 3678.473 -784.848 3660.083 -766.448 3637.473 -766.448 Z M 3173.883 -1151.458 C 3165.943 -1151.458 3159.483 -1144.998 3159.483 -1137.058 L 3159.483 -807.458 C 3159.483 -795.358 3169.333 -785.508 3181.433 -785.508 L 3637.473 -785.508 C 3649.573 -785.508 3659.433 -795.358 3659.433 -807.458 L 3659.433 -1137.058 C 3659.433 -1144.998 3652.973 -1151.458 3645.033 -1151.458 L 3173.883 -1151.458 Z" fill="#1E2128"/>
    <g opacity="0.4" transform="matrix(1, 0, 0, 1, 631.163147, -1267.75769)">
      <g opacity="0.4">
        <g opacity="0.4">
          <g opacity="0.4">
            <g opacity="0.4">
              <g opacity="0.4">
                <path opacity="0.4" d="M2537.84 460.3V130.7C2537.84 122.76 2544.3 116.3 2552.25 116.3H2542.73C2534.79 116.3 2528.32 122.76 2528.32 130.7V460.3C2528.32 472.41 2538.17 482.25 2550.28 482.25H2559.8C2547.69 482.26 2537.84 472.41 2537.84 460.3Z" fill="white"/>
              </g>
            </g>
          </g>
        </g>
      </g>
    </g>
    <path d="M 3668.953 -1138.198 C 3668.953 -1150.778 3658.163 -1160.978 3644.843 -1160.978 L 3174.063 -1160.978 C 3160.743 -1160.978 3149.953 -1150.778 3149.953 -1138.198 L 3149.953 -1100.438 L 3668.943 -1100.438 L 3668.943 -1138.198 L 3668.953 -1138.198 Z" fill="#E0E0E0"/>
    <path d="M 3668.953 -1090.918 L 3149.963 -1090.918 C 3144.703 -1090.918 3140.443 -1095.188 3140.443 -1100.438 L 3140.443 -1138.198 C 3140.443 -1156.008 3155.533 -1170.508 3174.073 -1170.508 L 3644.843 -1170.508 C 3663.383 -1170.508 3678.473 -1156.018 3678.473 -1138.198 L 3678.473 -1100.438 C 3678.473 -1095.178 3674.213 -1090.918 3668.953 -1090.918 Z M 3159.473 -1109.958 L 3659.423 -1109.958 L 3659.423 -1138.198 C 3659.423 -1145.508 3652.873 -1151.458 3644.833 -1151.458 L 3174.063 -1151.458 C 3166.023 -1151.458 3159.473 -1145.508 3159.473 -1138.198 L 3159.473 -1109.958 Z" fill="#1E2128"/>
    <path class="a-one" d="M 3391.383 -1047.378 L 3204.153 -1047.378 C 3200.013 -1047.378 3196.653 -1050.738 3196.653 -1054.878 C 3196.653 -1059.018 3200.013 -1062.378 3204.153 -1062.378 L 3391.383 -1062.378 C 3395.523 -1062.378 3398.883 -1059.018 3398.883 -1054.878 C 3398.883 -1050.738 3395.523 -1047.378 3391.383 -1047.378 Z" style="opacity: 0.828; transform-origin: 0px 0px; fill: rgb(20, 148, 233);" data-svg-origin="2666.60498046875 212.8800048828125"/>
    <path class="a-two" d="M 3317.483 -1000.418 L 3204.153 -1000.418 C 3200.013 -1000.418 3196.653 -1003.778 3196.653 -1007.918 C 3196.653 -1012.058 3200.013 -1015.418 3204.153 -1015.418 L 3317.483 -1015.418 C 3321.623 -1015.418 3324.983 -1012.058 3324.983 -1007.918 C 3324.983 -1003.778 3321.623 -1000.418 3317.483 -1000.418 Z" fill="#F75C4C" style="opacity: 0.172; transform-origin: 0px 0px;" data-svg-origin="2629.655029296875 259.8399963378906"/>
    <path class="a-three" d="M 3588.473 -1000.418 L 3358.543 -1000.418 C 3354.403 -1000.418 3351.043 -1003.778 3351.043 -1007.918 C 3351.043 -1012.058 3354.403 -1015.418 3358.543 -1015.418 L 3588.473 -1015.418 C 3592.613 -1015.418 3595.973 -1012.058 3595.973 -1007.918 C 3595.973 -1003.778 3592.613 -1000.418 3588.473 -1000.418 Z" fill="#EEF7FB" style="opacity: 0.828; transform-origin: 0px 0px;" data-svg-origin="2842.344970703125 259.8399963378906"/>
    <path class="a-four" d="M 3430.803 -955.838 L 3204.153 -955.838 C 3200.013 -955.838 3196.653 -959.198 3196.653 -963.338 C 3196.653 -967.478 3200.013 -970.838 3204.153 -970.838 L 3430.803 -970.838 C 3434.943 -970.838 3438.303 -967.478 3438.303 -963.338 C 3438.303 -959.198 3434.943 -955.838 3430.803 -955.838 Z" fill="#14E956" style="opacity: 0.172; transform-origin: 0px 0px;" data-svg-origin="2686.31494140625 304.4200134277344"/>
    <path class="a-five" d="M 3542.483 -955.838 L 3470.213 -955.838 C 3466.073 -955.838 3462.713 -959.198 3462.713 -963.338 C 3462.713 -967.478 3466.073 -970.838 3470.213 -970.838 L 3542.483 -970.838 C 3546.623 -970.838 3549.983 -967.478 3549.983 -963.338 C 3549.983 -959.198 3546.623 -955.838 3542.483 -955.838 Z" style="opacity: 0.828; transform-origin: 0px 0px; fill: rgb(236, 235, 227);" data-svg-origin="2875.18505859375 304.4200134277344"/>
    <path class="a-six" d="M 3509.643 -912.998 L 3204.163 -912.998 C 3200.023 -912.998 3196.663 -916.358 3196.663 -920.498 C 3196.663 -924.638 3200.023 -927.998 3204.163 -927.998 L 3509.643 -927.998 C 3513.783 -927.998 3517.143 -924.638 3517.143 -920.498 C 3517.143 -916.358 3513.783 -912.998 3509.643 -912.998 Z" fill="#EEF7FB" style="opacity: 0.172; transform-origin: 0px 0px;" data-svg-origin="2725.739990234375 347.260009765625"/>
    <path class="a-seven" d="M 3312.553 -869.058 L 3204.153 -869.058 C 3200.013 -869.058 3196.653 -872.418 3196.653 -876.558 C 3196.653 -880.698 3200.013 -884.058 3204.153 -884.058 L 3312.553 -884.058 C 3316.693 -884.058 3320.053 -880.698 3320.053 -876.558 C 3320.053 -872.418 3316.693 -869.058 3312.553 -869.058 Z" fill="#BA68C8" style="opacity: 0.828; transform-origin: 0px 0px;" data-svg-origin="2627.18994140625 391.20001220703125"/>
    <path class="a-eight" d="M 3562.193 -869.058 L 3355.253 -869.058 C 3351.113 -869.058 3347.753 -872.418 3347.753 -876.558 C 3347.753 -880.698 3351.113 -884.058 3355.253 -884.058 L 3562.193 -884.058 C 3566.333 -884.058 3569.693 -880.698 3569.693 -876.558 C 3569.693 -872.418 3566.343 -869.058 3562.193 -869.058 Z" fill="#14E956" style="opacity: 0.172; transform-origin: 0px 0px;" data-svg-origin="2827.56005859375 391.20001220703125"/>
    <path class="a-nine" d="M 3457.083 -820.368 L 3204.163 -820.368 C 3200.023 -820.368 3196.663 -823.728 3196.663 -827.868 C 3196.663 -832.008 3200.023 -835.368 3204.163 -835.368 L 3457.083 -835.368 C 3461.223 -835.368 3464.583 -832.008 3464.583 -827.868 C 3464.583 -823.718 3461.223 -820.368 3457.083 -820.368 Z" fill="#EEF7FB" style="opacity: 0.828; transform-origin: 0px 0px;" data-svg-origin="2699.4599609375 439.8900146484375"/>
    <path class="b-one" d="M 3202.511 -1127.622 C 3206.077 -1127.622 3208.969 -1130.514 3208.969 -1134.08 C 3208.969 -1137.646 3206.077 -1140.537 3202.511 -1140.537 C 3198.945 -1140.537 3196.053 -1137.646 3196.053 -1134.08 C 3196.053 -1130.514 3198.945 -1127.622 3202.511 -1127.622 Z" fill="#1E2128" data-svg-origin="2573.760009765625 136.09000396728516" style="transform-origin: 0px 0px; opacity: 0.172; fill: rgb(69, 44, 49);"/>
    <path class="b-two" d="M 3231.091 -1124.457 C 3236.405 -1124.457 3240.713 -1128.766 3240.713 -1134.08 C 3240.713 -1139.394 3236.405 -1143.702 3231.091 -1143.702 C 3225.777 -1143.702 3221.469 -1139.394 3221.469 -1134.08 C 3221.469 -1128.766 3225.777 -1124.457 3231.091 -1124.457 Z" fill="#1E2128" data-svg-origin="2602.3399658203125 136.09000396728516" style="transform-origin: 0px 0px; opacity: 0.828; fill: rgb(216, 162, 63);"/>
    <path class="b-three" d="M 3259.671 -1127.622 C 3263.237 -1127.622 3266.129 -1130.514 3266.129 -1134.08 C 3266.129 -1137.646 3263.237 -1140.537 3259.671 -1140.537 C 3256.105 -1140.537 3253.213 -1137.646 3253.213 -1134.08 C 3253.213 -1130.514 3256.105 -1127.622 3259.671 -1127.622 Z" fill="#1E2128" data-svg-origin="2630.919921875 136.09000396728516" style="transform-origin: 0px 0px; opacity: 0.172; fill: rgb(25, 62, 47);"/>
    <g opacity="0.5" transform="matrix(1, 0, 0, 1, 631.163147, -1267.75769)">
      <g opacity="0.5">
        <g opacity="0.5">
          <g opacity="0.5">
            <g opacity="0.5">
              <g opacity="0.5">
                <path opacity="0.5" d="M2873.82 49.4675L2812.29 0.355713L2669.72 178.99L2731.25 228.102L2873.82 49.4675Z" style="fill: rgb(255, 255, 255);"/>
              </g>
            </g>
          </g>
        </g>
      </g>
    </g>
    <g opacity="0.5" transform="matrix(1, 0, 0, 1, 631.163147, -1267.75769)">
      <g opacity="0.5">
        <g opacity="0.5">
          <g opacity="0.5">
            <g opacity="0.5">
              <g opacity="0.5">
                <path opacity="0.5" d="M2986.99 30.5408L2955.14 5.11475L2812.57 183.749L2844.42 209.176L2986.99 30.5408Z" fill="white"/>
              </g>
            </g>
          </g>
        </g>
      </g>
    </g>
    <g opacity="0.2" transform="matrix(1, 0, 0, 1, 631.163147, -1267.75769)">
      <g opacity="0.2">
        <g opacity="0.2">
          <g opacity="0.2">
            <g opacity="0.2">
              <g opacity="0.2">
                <path opacity="0.2" d="M3025.9 109.13C3025.9 109.13 2841.37 480.49 2521.88 466.82L2538.14 493.24H3013.71L3038.1 470.88L3038.05 131.74L3025.9 109.13Z" style="fill: rgb(102, 107, 117);"/>
              </g>
            </g>
          </g>
        </g>
      </g>
    </g>
    <path d="M 3377.293 540.242 L 3120.393 540.242 L 3080.223 99.232 L 3417.463 99.232 L 3377.293 540.242 Z" fill="#FEF5E7"/>
    <path d="M 3377.293 553.802 L 3120.393 553.802 C 3113.373 553.802 3107.523 548.452 3106.883 541.472 L 3066.713 100.462 C 3066.363 96.662 3067.633 92.902 3070.203 90.082 C 3072.773 87.262 3076.403 85.662 3080.213 85.662 L 3417.463 85.662 C 3421.273 85.662 3424.913 87.262 3427.473 90.082 C 3430.043 92.892 3431.313 96.662 3430.963 100.462 L 3390.783 541.472 C 3390.163 548.452 3384.303 553.802 3377.293 553.802 Z M 3132.773 526.682 L 3364.903 526.682 L 3402.613 112.802 L 3095.073 112.802 L 3132.773 526.682 Z" fill="#1E2128"/>
    <g opacity="0.4" transform="matrix(1, 0, 0, 1, 631.163147, -1267.75769)">
      <g opacity="0.4">
        <g opacity="0.4">
          <g opacity="0.4">
            <g opacity="0.4">
              <g opacity="0.4">
                <path opacity="0.4" d="M2463.91 1380.55L2501.61 1794.44H2528.74L2491.04 1380.55H2463.91Z" fill="white"/>
              </g>
            </g>
          </g>
        </g>
      </g>
    </g>
    <path d="M 3453.883 196.252 L 3065.043 196.252 L 3065.043 420.392 L 3453.883 420.392 L 3453.883 196.252 Z" fill="#BE8C6B"/>
    <path d="M 3453.883 430.392 L 3065.043 430.392 C 3059.523 430.392 3055.043 425.912 3055.043 420.392 L 3055.043 196.252 C 3055.043 190.732 3059.523 186.252 3065.043 186.252 L 3453.883 186.252 C 3459.403 186.252 3463.883 190.732 3463.883 196.252 L 3463.883 420.392 C 3463.883 425.912 3459.413 430.392 3453.883 430.392 Z M 3075.053 410.392 L 3443.893 410.392 L 3443.893 206.252 L 3075.053 206.252 L 3075.053 410.392 Z" fill="#1E2128"/>
    <g opacity="0.5" transform="matrix(1, 0, 0, 1, 631.163147, -1267.75769)">
      <g opacity="0.5">
        <g opacity="0.5">
          <g opacity="0.5">
            <g opacity="0.5">
              <g opacity="0.5">
                <path opacity="0.5" d="M2490.9 1676.85H2518.03L2499.67 1475.31H2472.54L2490.9 1676.85Z" fill="white"/>
              </g>
            </g>
          </g>
        </g>
      </g>
    </g>
    <g class="c-tween" transform="matrix(1, 0, 0, 1, 631.163147, -1267.75769)">
      <path d="M2572.4 1608.63C2572.52 1608.59 2572.64 1608.49 2572.76 1608.49C2573.81 1608.37 2579.01 1605.63 2584.17 1601.71C2589.49 1597.78 2595.36 1592.65 2599.82 1587.66C2601.51 1585.77 2602.98 1583.89 2604.15 1582.18C2608.26 1576.09 2609.84 1569.44 2611.87 1561.7C2613.91 1554.06 2616.48 1545.3 2623.49 1536.7C2623.78 1536.34 2624.13 1535.92 2624.5 1535.47C2630.18 1529.14 2636.75 1526.54 2642.49 1523.95C2644.96 1522.82 2647.35 1521.69 2649.69 1520.35C2644.43 1517.77 2638.33 1516.69 2631.88 1517.06C2616.72 1517.92 2599.47 1526.64 2585.88 1541.88C2566.15 1564.02 2560.91 1592.22 2572.4 1608.63Z" fill="#1E2128"/>
      <path d="M2668.8 1578.39C2669.78 1575.48 2670.55 1572.62 2671.1 1569.77C2671.82 1566.04 2672.14 1562.37 2672.06 1558.84C2671.85 1549.69 2668.97 1541.52 2663.27 1535.52C2658.89 1538.59 2654.61 1540.6 2650.89 1542.26C2644.82 1544.93 2640.38 1546.91 2636.91 1550.83C2636.73 1551.03 2636.53 1551.29 2636.27 1551.61C2630.91 1558.2 2628.87 1564.76 2626.88 1572.21C2624.92 1579.6 2623.15 1587.87 2617.53 1596.22C2615.99 1598.51 2614.17 1600.78 2612.19 1603C2606.98 1608.84 2600.6 1614.37 2594.69 1618.7C2591.12 1621.29 2587.93 1623.39 2584.98 1624.98C2591.01 1629.19 2598.48 1630.96 2606.57 1630.5C2621.6 1629.65 2638.67 1621.06 2652.22 1606.04C2652.34 1605.91 2652.45 1605.78 2652.57 1605.68C2660.17 1597.18 2665.61 1587.7 2668.8 1578.39Z" fill="#1E2128"/>
    </g>
    <path d="M 3445.483 117.912 L 3052.203 117.912 L 3052.203 111.622 C 3052.203 86.442 3072.613 66.022 3097.803 66.022 L 3399.893 66.022 C 3425.073 66.022 3445.493 86.432 3445.493 111.622 L 3445.493 117.912 L 3445.483 117.912 Z" fill="#707070"/>
    <path d="M 3445.483 131.472 L 3052.203 131.472 C 3044.713 131.472 3038.643 125.402 3038.643 117.912 L 3038.643 111.622 C 3038.643 79.002 3065.183 52.462 3097.803 52.462 L 3399.893 52.462 C 3432.513 52.462 3459.053 79.002 3459.053 111.622 L 3459.053 117.912 C 3459.053 125.402 3452.973 131.472 3445.483 131.472 Z M 3066.603 104.342 L 3431.083 104.342 C 3427.783 90.172 3415.043 79.592 3399.883 79.592 L 3097.793 79.592 C 3082.633 79.592 3069.903 90.172 3066.603 104.342 Z" fill="#1E2128"/>
    <g opacity="0.5" transform="matrix(1, 0, 0, 1, 631.163147, -1267.75769)">
      <g opacity="0.5">
        <g opacity="0.5">
          <g opacity="0.5">
            <g opacity="0.5">
              <g opacity="0.5">
                <path opacity="0.5" d="M2475.68 1356.39H2777.77C2784.36 1356.39 2790.42 1358.48 2795.52 1361.9C2789.79 1353.16 2779.94 1347.35 2768.73 1347.35H2466.64C2451.48 1347.35 2438.74 1357.94 2435.44 1372.11H2448.2C2453.79 1362.72 2463.99 1356.39 2475.68 1356.39Z" fill="white"/>
              </g>
            </g>
          </g>
        </g>
      </g>
    </g>
    <path d="M 3099.933 66.022 L 3397.743 66.022 L 3397.743 48.172 C 3397.743 33.532 3386.213 21.492 3371.593 20.852 L 3128.463 10.262 C 3112.913 9.582 3099.933 22.012 3099.933 37.582 L 3099.933 66.022 Z" fill="#707070"/>
    <path d="M 3397.753 79.592 L 3099.943 79.592 C 3092.453 79.592 3086.383 73.522 3086.383 66.032 L 3086.383 37.592 C 3086.383 26.332 3090.863 15.832 3099.003 8.052 C 3107.133 0.262 3117.753 -3.788 3129.073 -3.268 L 3372.203 7.322 C 3394.143 8.282 3411.333 26.232 3411.333 48.192 L 3411.333 66.042 C 3411.313 73.512 3405.243 79.592 3397.753 79.592 Z M 3113.503 52.462 L 3384.183 52.462 L 3384.183 48.172 C 3384.183 40.772 3378.393 34.732 3371.003 34.412 L 3127.873 23.822 C 3124.083 23.642 3120.483 25.012 3117.743 27.632 C 3115.003 30.252 3113.493 33.792 3113.493 37.582 L 3113.493 52.462 L 3113.503 52.462 Z" fill="#1E2128"/>
    <g opacity="0.5" transform="matrix(1, 0, 0, 1, 631.163147, -1267.75769)">
      <g opacity="0.5">
        <g opacity="0.5">
          <g opacity="0.5">
            <g opacity="0.5">
              <g opacity="0.5">
                <path opacity="0.5" d="M2491.38 1309.86C2491.38 1306.07 2492.89 1302.53 2495.63 1299.91C2498.37 1297.28 2501.95 1295.9 2505.76 1296.1L2748.89 1306.69C2749.1 1306.7 2749.3 1306.76 2749.51 1306.78C2747.12 1304.1 2743.72 1302.34 2739.85 1302.17L2496.72 1291.58C2492.91 1291.39 2489.33 1292.77 2486.59 1295.39C2483.85 1298.01 2482.34 1301.55 2482.34 1305.34V1320.22H2491.38V1309.86Z" fill="white"/>
              </g>
            </g>
          </g>
        </g>
      </g>
    </g>
    <g opacity="0.3" transform="matrix(1, 0, 0, 1, 631.163147, -1267.75769)">
      <g opacity="0.3">
        <g opacity="0.3">
          <g opacity="0.3">
            <g opacity="0.3">
              <g opacity="0.3">
                <path opacity="0.3" d="M2464.91 1391.53L2466.16 1405.27L2662.36 1412.04C2695.92 1413.2 2720.75 1443.62 2715.17 1476.74C2697.74 1580.16 2645.72 1776.59 2501.11 1788.96L2501.61 1794.44H2724.7L2761.4 1391.53H2464.91Z" fill="#1E2128"/>
              </g>
            </g>
          </g>
        </g>
      </g>
    </g>
    <g opacity="0.3" transform="matrix(1, 0, 0, 1, 631.163147, -1267.75769)">
      <g opacity="0.3">
        <g opacity="0.3">
          <g opacity="0.3">
            <g opacity="0.3">
              <g opacity="0.3">
                <path opacity="0.3" d="M3077.5 2318H92.5C41.41 2318 0 2276.59 0 2225.5C0 2174.41 41.41 2133 92.5 2133H3077.5C3128.59 2133 3170 2174.41 3170 2225.5C3170 2276.59 3128.59 2318 3077.5 2318Z" fill="#1E2128"/>
              </g>
            </g>
          </g>
        </g>
      </g>
    </g>
    <path d="M 1438.483 -232.848 C 1421.873 -232.848 1407.003 -241.438 1398.693 -255.818 L 1362.013 -319.358 L 1268.443 -319.368 C 1230.823 -319.588 1200.293 -347.788 1200.293 -382.218 L 1200.293 -551.978 C 1200.293 -586.638 1231.023 -614.838 1268.803 -614.838 L 1608.183 -614.838 C 1645.963 -614.838 1676.693 -586.638 1676.693 -551.978 L 1676.693 -382.218 C 1676.693 -347.548 1645.963 -319.348 1608.183 -319.348 L 1514.963 -319.348 L 1478.283 -255.808 C 1469.963 -241.438 1455.093 -232.848 1438.483 -232.848 Z" fill="#1E2128"/>
    <path d="M 1608.173 -598.968 C 1637.243 -598.968 1660.803 -577.928 1660.803 -551.978 L 1660.803 -382.218 C 1660.803 -356.268 1637.243 -335.228 1608.173 -335.228 L 1505.783 -335.228 L 1495.973 -318.238 L 1464.513 -263.748 C 1458.723 -253.728 1448.603 -248.718 1438.473 -248.718 C 1428.343 -248.718 1418.223 -253.728 1412.433 -263.748 L 1380.973 -318.238 L 1371.163 -335.228 L 1268.423 -335.238 C 1239.523 -335.408 1216.143 -356.368 1216.143 -382.208 L 1216.143 -551.968 C 1216.143 -577.918 1239.703 -598.958 1268.773 -598.958 L 1608.173 -598.958 L 1608.173 -598.968 Z M 1608.173 -630.718 L 1268.793 -630.718 C 1222.263 -630.718 1184.403 -595.398 1184.403 -551.978 L 1184.403 -382.218 C 1184.403 -339.078 1222.013 -303.768 1268.253 -303.488 L 1352.843 -303.478 L 1353.493 -302.358 L 1384.953 -247.878 C 1396.123 -228.528 1416.133 -216.968 1438.493 -216.968 C 1460.843 -216.968 1480.853 -228.528 1492.033 -247.878 L 1523.493 -302.368 L 1524.133 -303.478 L 1608.183 -303.478 C 1654.713 -303.478 1692.573 -338.798 1692.573 -382.218 L 1692.573 -551.978 C 1692.553 -595.398 1654.703 -630.718 1608.173 -630.718 Z" style="fill: rgb(64, 112, 244);"/>
    <path d="M 1387.423 -410.228 C 1384.913 -410.228 1382.393 -411.168 1380.443 -413.058 L 1328.993 -463.128 C 1327.063 -465.008 1325.973 -467.598 1325.973 -470.298 C 1325.973 -472.998 1327.063 -475.578 1328.993 -477.468 L 1377.123 -524.318 C 1381.083 -528.168 1387.413 -528.088 1391.263 -524.128 C 1395.113 -520.168 1395.033 -513.838 1391.073 -509.988 L 1350.313 -470.308 L 1394.393 -427.398 C 1398.353 -423.548 1398.433 -417.218 1394.583 -413.258 C 1392.633 -411.238 1390.033 -410.228 1387.423 -410.228 Z" fill="white"/>
    <path d="M 1489.533 -410.228 C 1486.933 -410.228 1484.323 -411.238 1482.363 -413.248 C 1478.513 -417.208 1478.593 -423.538 1482.553 -427.388 L 1526.633 -470.298 L 1485.873 -509.978 C 1481.913 -513.828 1481.833 -520.158 1485.683 -524.118 C 1489.533 -528.078 1495.873 -528.158 1499.823 -524.308 L 1547.953 -477.458 C 1549.883 -475.578 1550.973 -472.988 1550.973 -470.288 C 1550.973 -467.588 1549.883 -465.008 1547.953 -463.118 L 1496.503 -413.048 C 1494.573 -411.168 1492.053 -410.228 1489.533 -410.228 Z" fill="white"/>
    <path d="M 1419.403 -383.298 C 1418.553 -383.298 1417.693 -383.408 1416.843 -383.628 C 1411.503 -385.038 1408.313 -390.508 1409.733 -395.848 L 1449.563 -546.608 C 1450.973 -551.948 1456.463 -555.138 1461.783 -553.718 C 1467.123 -552.308 1470.313 -546.838 1468.893 -541.498 L 1429.063 -390.738 C 1427.883 -386.268 1423.833 -383.298 1419.403 -383.298 Z" fill="white"/>
    <g opacity="0.6" transform="matrix(1, 0, 0, 1, 631.163147, -1267.75769)">
      <g opacity="0.6">
        <g opacity="0.6">
          <g opacity="0.6">
            <g opacity="0.6">
              <g opacity="0.6">
                <g opacity="0.6">
                  <path opacity="0.6" d="M2617.1 1196.63C2612.96 1196.63 2609.6 1193.27 2609.6 1189.13V1178.67C2609.6 1169.05 2601.77 1161.22 2592.15 1161.22H2501.62C2482.21 1161.22 2466.41 1145.42 2466.41 1126.01C2466.41 1106.6 2482.21 1090.8 2501.62 1090.8H2711.79C2720.45 1090.8 2727.49 1083.75 2727.49 1075.09C2727.49 1066.43 2720.44 1059.39 2711.79 1059.39H2537.04C2532.9 1059.39 2529.54 1056.03 2529.54 1051.89C2529.54 1047.75 2532.9 1044.39 2537.04 1044.39H2711.79C2728.72 1044.39 2742.49 1058.16 2742.49 1075.09C2742.49 1092.02 2728.72 1105.8 2711.79 1105.8H2501.62C2490.48 1105.8 2481.41 1114.87 2481.41 1126.01C2481.41 1137.16 2490.48 1146.22 2501.62 1146.22H2592.15C2610.04 1146.22 2624.6 1160.78 2624.6 1178.67V1189.13C2624.6 1193.27 2621.24 1196.63 2617.1 1196.63Z" fill="#FFFAFA"/>
                </g>
              </g>
            </g>
          </g>
        </g>
      </g>
      <g opacity="0.6">
        <g opacity="0.6">
          <g opacity="0.6">
            <g opacity="0.6">
              <g opacity="0.6">
                <g opacity="0.6">
                  <path opacity="0.6" d="M2500.2 1059.38H2473.8C2469.66 1059.38 2466.3 1056.02 2466.3 1051.88C2466.3 1047.74 2469.66 1044.38 2473.8 1044.38H2500.2C2504.34 1044.38 2507.7 1047.74 2507.7 1051.88C2507.7 1056.02 2504.34 1059.38 2500.2 1059.38Z" fill="#FFFAFA"/>
                </g>
              </g>
            </g>
          </g>
        </g>
      </g>
      <g opacity="0.6">
        <g opacity="0.6">
          <g opacity="0.6">
            <g opacity="0.6">
              <g opacity="0.6">
                <g opacity="0.6">
                  <path opacity="0.6" d="M2550.35 1011.87H2425.88C2421.74 1011.87 2418.38 1008.51 2418.38 1004.37C2418.38 1000.23 2421.74 996.87 2425.88 996.87H2550.35C2554.49 996.87 2557.85 1000.23 2557.85 1004.37C2557.85 1008.51 2554.49 1011.87 2550.35 1011.87Z" fill="#FFFAFA"/>
                </g>
              </g>
            </g>
          </g>
        </g>
      </g>
    </g>
    <g opacity="0.2" transform="matrix(1, 0, 0, 1, 631.163147, -1267.75769)">
      <g opacity="0.2">
        <g opacity="0.2">
          <g opacity="0.2">
            <g opacity="0.2">
              <g opacity="0.2">
                <path opacity="0.2" d="M977.01 668.79H942.01C971.08 668.79 994.64 689.83 994.64 715.78V775.32C980 893 894.3 906.07 856.01 924.97C845.12 930.35 836.02 938.77 829.94 949.29L829.81 949.51L798.35 1004C796.09 1007.92 793.15 1011.05 789.81 1013.43C803.51 1023.24 824.04 1020.12 833.35 1004L862.51 953.5L992.5 940.5L1000.2 927.67C1017.62 920.01 1029.64 904.05 1029.64 885.54V715.78C1029.64 689.83 1006.07 668.79 977.01 668.79Z" fill="#1E2128"/>
              </g>
            </g>
          </g>
        </g>
      </g>
    </g>
  </g>
</svg>