<?xml version="1.0" standalone="no"?>
<!DOCTYPE svg PUBLIC "-//W3C//DTD SVG 20010904//EN"
 "http://www.w3.org/TR/2001/REC-SVG-20010904/DTD/svg10.dtd">
<svg version="1.0" xmlns="http://www.w3.org/2000/svg"
 width="500.000000pt" height="500.000000pt" viewBox="0 0 500.000000 500.000000"
 preserveAspectRatio="xMidYMid meet">

<g transform="translate(0.000000,500.000000) scale(0.100000,-0.100000)"
fill="#000000" stroke="none">
<path d="M896 2859 c-14 -17 -26 -35 -26 -41 0 -6 -11 -8 -26 -5 -23 4 -34 -6
-90 -77 -35 -45 -70 -90 -77 -100 -12 -17 -17 -17 -50 -5 -28 10 -41 10 -59 1
-13 -6 -32 -11 -43 -9 -16 2 -21 -5 -23 -30 -3 -29 1 -34 67 -73 l71 -41 40
32 c25 20 45 29 56 25 10 -4 25 1 36 11 16 14 24 15 51 5 37 -14 27 -23 131
113 l77 100 -31 13 -31 13 32 40 c17 22 30 41 28 43 -2 2 -27 6 -55 10 -49 6
-53 5 -78 -25z"/>
<path d="M3026 2725 c-9 -13 -16 -33 -16 -45 0 -15 -7 -20 -25 -20 -21 0 -25
-5 -25 -30 0 -25 4 -30 25 -30 l25 0 0 -119 c0 -117 1 -120 26 -140 18 -15 41
-21 73 -21 54 0 66 7 67 38 1 20 -4 22 -53 22 l-53 0 0 110 0 110 55 0 c55 0
55 0 55 31 l0 30 -52 -2 -53 -3 -3 47 c-4 53 -20 61 -46 22z"/>
<path d="M4457 2733 c-8 -10 -17 -31 -19 -48 -2 -22 -8 -30 -23 -30 -14 0 -21
-8 -23 -27 -3 -24 0 -28 22 -28 l26 0 0 -116 c0 -63 5 -124 10 -134 12 -23 66
-35 115 -26 29 6 35 11 35 31 0 23 -4 25 -50 25 l-50 0 0 110 0 110 56 0 c54
0 55 0 52 28 -3 25 -7 27 -55 30 l-53 3 0 45 c0 48 -15 57 -43 27z"/>
<path d="M1513 2650 c-36 -15 -43 -43 -43 -165 0 -110 1 -117 25 -140 23 -24
30 -25 143 -25 167 0 163 -4 163 169 0 109 -3 137 -16 150 -12 13 -41 16 -133
18 -64 2 -127 -2 -139 -7z m235 -162 l3 -108 -111 0 -110 0 0 110 0 111 108
-3 107 -3 3 -107z"/>
<path d="M2620 2651 c-40 -11 -50 -45 -50 -169 0 -107 1 -114 25 -137 23 -24
31 -25 132 -25 151 0 183 7 183 36 l0 24 -141 0 -140 0 3 38 3 37 138 3 137 3
0 73 c0 113 -9 121 -152 123 -62 1 -124 -1 -138 -6z m228 -93 l3 -38 -110 0
-111 0 0 33 c0 19 3 37 7 41 4 4 52 5 107 4 l101 -3 3 -37z"/>
<path d="M3290 2653 c-39 -15 -50 -36 -50 -98 0 -87 11 -95 133 -95 l97 0 0
-40 0 -40 -115 0 c-114 0 -115 0 -115 -24 0 -29 28 -36 152 -36 81 0 91 2 113
25 33 32 35 110 4 149 -19 25 -25 26 -115 26 l-94 0 0 40 0 40 115 0 115 0 0
25 c0 25 0 25 -99 25 -55 0 -105 2 -113 4 -7 3 -20 2 -28 -1z"/>
<path d="M1216 2628 c-13 -18 -16 -52 -16 -165 l0 -143 30 0 29 0 3 138 3 137
78 3 c74 3 77 4 77 27 0 25 -1 25 -94 25 -87 0 -96 -2 -110 -22z"/>
<path d="M1890 2631 c-5 -11 -10 -78 -10 -150 0 -166 -4 -163 166 -159 l119 3
0 25 c0 25 0 25 -115 30 l-115 5 0 105 0 105 116 3 116 3 -5 24 -4 25 -129 0
c-117 0 -129 -2 -139 -19z"/>
<path d="M2240 2485 l0 -165 25 0 c23 0 24 3 27 68 4 94 22 94 113 2 63 -63
73 -70 110 -70 l40 0 -87 88 -86 87 70 75 69 75 -38 3 c-35 3 -41 -1 -98 -63
-79 -86 -95 -86 -95 0 0 63 -1 65 -25 65 l-25 0 0 -165z"/>
<path d="M3616 2634 c-13 -12 -16 -41 -16 -149 0 -172 -8 -165 187 -165 l143
0 0 30 0 30 -135 0 -135 0 0 40 0 40 135 0 135 0 0 78 c0 111 -2 112 -168 112
-105 0 -134 -3 -146 -16z m254 -74 l0 -40 -105 0 -105 0 0 40 0 40 105 0 105
0 0 -40z"/>
<path d="M4000 2625 l0 -24 138 -3 137 -3 3 -37 3 -38 -123 -2 c-68 0 -130 -1
-138 -2 -12 -1 -16 -18 -18 -75 -3 -65 0 -77 19 -97 21 -23 29 -24 144 -24
170 0 165 -5 165 169 0 93 -4 141 -12 149 -8 8 -59 12 -165 12 l-153 0 0 -25z
m278 -207 l3 -38 -110 0 -111 0 0 40 0 41 108 -3 107 -3 3 -37z"/>
<path d="M554 2436 c0 -42 3 -56 19 -65 16 -10 23 -9 41 7 11 11 32 22 45 24
27 3 29 1 -79 71 l-25 16 -1 -53z"/>
<path d="M502 2342 c-23 -21 -76 -147 -67 -161 3 -6 1 -21 -5 -33 -7 -13 22
11 64 53 84 84 95 114 52 143 -23 14 -26 14 -44 -2z"/>
</g>
</svg>
